<?xml version="1.0" encoding="UTF-8"?>
<svg id="Layer_1" xmlns="http://www.w3.org/2000/svg" version="1.1" viewBox="0 0 632.43 290.62">
  
  <path d="M163.94,98.22c-6.79-3.46-14.42-5.19-22.88-5.19-15.25,0-27.07,4.71-35.47,14.13-8.39,9.42-12.59,22.27-12.59,38.54,0,17.3,4.26,30.25,12.78,38.83,8.52,8.59,20.21,12.88,35.08,12.88,12.69,0,22.97-2.98,30.85-8.94,7.88-5.96,12.08-14.19,12.59-24.7h-15.76c-.9,7.3-3.49,12.37-7.79,15.19-4.29,2.82-11.05,4.23-20.28,4.23-10.89,0-18.71-2.14-23.45-6.44-4.74-4.29-7.11-11.44-7.11-21.43l.19-4.61h75.35c.38-3.08.58-6.21.58-9.42,0-10.76-1.99-19.77-5.96-27.01-3.97-7.24-9.36-12.59-16.15-16.05ZM168.55,137.43h-58.24c-.13-7.3.7-13.1,2.5-17.4,1.79-4.29,4.87-7.4,9.23-9.32,4.36-1.92,10.38-2.88,18.07-2.88,10.38,0,17.75,1.73,22.11,5.19,4.36,3.46,6.54,9.68,6.54,18.65,0,2.57-.07,4.49-.19,5.77Z"></path>
  <path d="M248.57,93.03c-6.92,0-13.04,1.15-18.36,3.46-5.32,2.31-9.39,5.32-12.21,9.03h-5.38v-45.37h-16.15v134.56h15.57l.38-8.66h5.38c2.95,3.72,7.02,6.76,12.21,9.13,5.19,2.37,11.18,2.22,17.97,2.22,8.2,0,15.5-1.95,21.91-5.86,6.41-3.91,11.44-9.8,15.09-17.68,3.65-7.88,5.48-17.59,5.48-29.12,0-16.53-3.75-29.28-11.25-38.25-7.5-8.97-17.72-13.46-30.66-13.46ZM270.68,169.73c-1.41,5-4.13,8.4-8.17,10.19-4.04,1.8-10.67,2.69-19.9,2.69s-15.7-.9-19.8-2.69c-4.1-1.79-6.86-5.19-8.27-10.19-1.41-5-2.11-13.2-2.11-24.6s.7-19.44,2.11-24.51c1.41-5.06,4.16-8.46,8.27-10.19,4.1-1.73,10.7-2.59,19.8-2.59s15.86.86,19.9,2.59c4.04,1.73,6.76,5.09,8.17,10.09,1.41,5,2.11,13.2,2.11,24.61s-.71,19.61-2.11,24.6Z"></path>
  <path d="M367.71,157.81c0,7.18-.64,12.53-1.92,16.05-1.28,3.53-3.68,5.96-7.21,7.3-3.53,1.35-9,2.02-16.44,2.02s-13.07-.61-16.53-1.83c-3.46-1.22-5.8-3.49-7.02-6.82-1.22-3.33-1.83-8.58-1.83-15.76v-63.05h-16.15v67.47c0,11.41,2.98,19.96,8.94,25.66,5.96,5.7,14.06,8.55,24.32,8.55,6.15,0,11.66-.99,16.53-2.98,4.87-1.99,8.91-4.77,12.11-8.36h5.57l.19,8.65h15.57v-99h-16.15v62.09Z"></path>
  <path d="M523.43,95.76v62.09c0,7.18-.64,12.52-1.92,16.05-1.28,3.52-3.75,5.96-7.4,7.3-3.65,1.35-9.26,2.02-16.82,2.02s-13.29-.61-16.82-1.83c-3.52-1.22-5.89-3.49-7.11-6.82-1.22-3.33-1.83-8.59-1.83-15.76v-63.05h-11.93s-16.94,0-16.94,0h-.07c-11.37.27-19.91,2.45-26.05,9.74h-5.38l-.53-9.78h-15.57v99h16.15v-58.77c0-6.79.74-11.85,2.21-15.19,1.47-3.33,4.04-5.67,7.69-7.02,3.65-1.35,9.19-2.02,16.63-2.02h5s12.65,0,12.65,0v51.5c0,11.4,2.98,19.96,8.94,25.66,5.96,5.7,14.19,8.55,24.7,8.55,6.41,0,12.01-.99,16.82-2.98,4.81-1.99,8.75-4.96,11.95-8.42h0s5.38,0,5.38,0h.19l.06,11.45v3.44c0,5.38-.8,9.48-2.4,12.3-1.61,2.82-4.42,4.87-8.46,6.15-4.04,1.28-9.97,1.92-17.78,1.92-7.05,0-12.53-.51-16.44-1.54-3.91-1.03-6.67-2.69-8.27-5-1.6-2.31-2.53-5.57-2.79-9.8h-15.76c-.26,9.23,3.23,16.59,10.48,22.11,7.24,5.51,18.04,8.27,32.39,8.27,7.81,0,14.86-.99,21.15-2.98,6.28-1.99,11.15-4.9,14.61-8.75,3.08-3.33,5.38-7.24,6.92-11.73,1.21-3.55,2.04-7.36,2.29-12.27v-.41s.01-103.47.01-103.47h-15.96Z"></path>
</svg>