<svg xmlns="http://www.w3.org/2000/svg" viewBox="0 0 64 64" fill="none"><g transform="translate(-892 -822)" fill="currentColor">
<path d="M911.3 854.688L900.559 865.429H949.035V869.429H900.559L911.301 880.171L908.472 883L895.586 870.113C895.211 869.738 895 869.23 895 868.699V866.159C895 865.629 895.211 865.12 895.586 864.745L908.472 851.859L911.3 854.688Z" fill="currentColor"></path>
<path d="M952.445 837.885C952.82 838.26 953.031 838.769 953.031 839.3V841.839C953.031 842.37 952.82 842.879 952.445 843.254L939.559 856.141L936.73 853.312L947.472 842.57H898.996V838.57H947.472L936.73 827.829L939.559 825L952.445 837.885Z" fill="currentColor"></path>
</g></svg>