<svg xmlns="http://www.w3.org/2000/svg" viewBox="0 0 64 64" fill="none"><g transform="translate(-564 -612)" fill="currentColor">
<path d="M614.694 623.504C615.695 623.53 616.64 623.933 617.353 624.64L623.85 631.095C624.533 631.774 624.939 632.677 624.993 633.637L625 633.75V660.258L624.993 660.371C624.939 661.331 624.533 662.234 623.85 662.913L617.353 669.368C616.64 670.075 615.695 670.478 614.694 670.504H577.306C576.305 670.478 575.36 670.075 574.647 669.368L568.15 662.913C567.467 662.234 567.061 661.331 567.007 660.371L567 660.258V641.504H585.5C587.709 641.504 589.5 643.295 589.5 645.504H571L570.998 660.655C570.998 662.739 571.587 664.292 572.748 665.271C573.693 666.067 575.03 666.482 576.717 666.503H615.283C616.97 666.482 618.307 666.067 619.252 665.271C620.413 664.292 621.002 662.739 621.002 660.655L621 645.504H602.5L602.495 645.709C602.388 647.823 600.64 649.504 598.5 649.504H593.5C591.291 649.504 589.5 647.713 589.5 645.504H602.5C602.5 643.295 604.291 641.504 606.5 641.504H621L621.002 633.353C621.002 631.269 620.413 629.716 619.252 628.737C618.307 627.941 616.97 627.526 615.283 627.505H593V623.504H614.694Z" fill="currentColor"></path>
<path d="M582.012 628.179V616.008H586.012V632.177C586.012 632.707 585.801 633.216 585.426 633.591L584.594 634.422C584.22 634.797 583.712 635.007 583.183 635.008H567.012V631.008H579.183L567 618.825L569.829 615.997L582.012 628.179Z" fill="currentColor"></path>
</g></svg>