<svg xmlns="http://www.w3.org/2000/svg" viewBox="0 0 64 64" fill="none"><g transform="translate(-236 -1032)" fill="currentColor">
<path d="M283.446 1087.46L294.188 1076.72L297.016 1079.54L284.131 1092.43C283.756 1092.8 283.246 1093.02 282.716 1093.02H280.177C279.646 1093.02 279.137 1092.8 278.762 1092.43L265.875 1079.54L268.704 1076.71L279.446 1087.46V1038.98H283.446V1087.46ZM255.856 1034.98C256.387 1034.98 256.895 1035.2 257.271 1035.57L270.156 1048.46L267.328 1051.28L256.587 1040.54V1089.02H252.587V1040.54L241.845 1051.29L239.016 1048.46L251.902 1035.57C252.277 1035.2 252.786 1034.98 253.316 1034.98H255.856Z" fill="currentColor"></path>
</g></svg>