<svg xmlns="http://www.w3.org/2000/svg" viewBox="0 0 64 64" fill="none"><g transform="translate(-400 -1032)" fill="currentColor">
<path d="M458.5 1071.25L458.493 1071.37C458.439 1072.33 458.033 1073.23 457.35 1073.91L450.853 1080.36C450.14 1081.07 449.195 1081.47 448.194 1081.5L448.194 1081.5L421.271 1081.5L429.877 1090.1L427.048 1092.93L415.615 1081.5C415.24 1081.12 415.029 1080.62 415.029 1080.09L415.03 1078.91C415.03 1078.38 415.24 1077.87 415.614 1077.5L427.048 1066.06L429.877 1068.89L421.271 1077.5L448.781 1077.5L448.783 1077.5C450.47 1077.48 451.807 1077.06 452.752 1076.27C453.913 1075.29 454.502 1073.74 454.502 1071.65V1059H458.5V1071.25Z" fill="currentColor"></path>
<path d="M448.385 1046.5C448.76 1046.88 448.971 1047.38 448.971 1047.91L448.97 1049.09C448.97 1049.62 448.76 1050.13 448.386 1050.5L436.952 1061.94L434.123 1059.11L442.729 1050.5L415.217 1050.5C413.53 1050.52 412.193 1050.94 411.248 1051.73C410.087 1052.71 409.498 1054.26 409.498 1056.35V1069H405.5V1056.75L405.507 1056.63C405.561 1055.67 405.967 1054.77 406.65 1054.09L413.147 1047.64C413.86 1046.93 414.805 1046.53 415.806 1046.5L442.729 1046.5L434.123 1037.9L436.952 1035.07L448.385 1046.5Z" fill="currentColor"></path>
</g></svg>