<svg xmlns="http://www.w3.org/2000/svg" viewBox="0 0 64 64" fill="none"><g transform="translate(-728 -612)" fill="currentColor">
<path d="M763 627.505H740.717C739.03 627.526 737.693 627.941 736.748 628.737C735.587 629.716 734.998 631.269 734.998 633.353L735 641.504H749.5C751.709 641.504 753.5 643.295 753.5 645.504H735L734.998 660.655C734.998 662.739 735.587 664.292 736.748 665.271C737.693 666.067 739.03 666.482 740.717 666.503H779.283C780.97 666.482 782.307 666.067 783.252 665.271C784.413 664.292 785.002 662.739 785.002 660.655L785 645.504H766.5C766.5 643.295 768.291 641.504 770.5 641.504H789V660.258L788.993 660.371C788.939 661.331 788.533 662.234 787.85 662.913L781.353 669.368C780.64 670.075 779.695 670.478 778.694 670.504H741.306C740.305 670.478 739.36 670.075 738.647 669.368L732.15 662.913C731.467 662.234 731.061 661.331 731.007 660.371L731 660.258V633.75L731.007 633.637C731.061 632.677 731.467 631.774 732.15 631.095L738.647 624.64C739.36 623.933 740.305 623.53 741.306 623.504H763V627.505Z" fill="currentColor"></path>
<path d="M766.5 645.504C766.5 647.713 764.709 649.504 762.5 649.504H757.5C755.291 649.504 753.5 647.713 753.5 645.504H766.5Z" fill="currentColor"></path>
<path d="M786.171 615.996C786.701 615.997 787.208 616.208 787.583 616.582L788.414 617.413C788.789 617.788 789 618.297 789 618.828V634.997H785V622.825L772.817 635.008L769.988 632.179L782.171 619.997H770V615.996H786.171Z" fill="currentColor"></path>
</g></svg>