<svg xmlns="http://www.w3.org/2000/svg" viewBox="0 0 64 64" fill="none"><g transform="translate(-564 -192)" fill="currentColor">
<path d="M621.503 248.5C622.608 248.5 623.503 249.395 623.503 250.5V252.5H568.503V250.5C568.503 249.395 569.398 248.5 570.503 248.5H621.503Z" fill="currentColor"></path>
<path d="M594.003 222H598.003V244.5H594.003V222Z" fill="currentColor"></path>
<path d="M574.503 222H578.503V244.5H574.503V222Z" fill="currentColor"></path>
<path d="M613.503 222H617.503V244.5H613.503V222Z" fill="currentColor"></path>
<path d="M621.501 218L623.501 214H568.501L570.501 218H621.501Z" fill="currentColor"></path>
<path d="M624.005 213L596.003 199.942L568.001 213L567.155 211.187C566.689 210.186 567.122 208.996 568.123 208.53L594.313 196.317C595.384 195.817 596.622 195.817 597.693 196.317L623.883 208.53C624.884 208.996 625.317 210.186 624.851 211.187L624.005 213Z" fill="currentColor"></path>
</g></svg>