<svg xmlns="http://www.w3.org/2000/svg" viewBox="0 0 64 64" fill="none"><g transform="translate(-1056 -1242)" fill="currentColor">
<path d="M1107 1250V1250H1104.22C1102.53 1250.02 1101.19 1250.44 1100.25 1251.23C1099.09 1252.21 1098.5 1253.77 1098.5 1255.85V1258H1098.5V1298H1103V1298H1105.78C1107.47 1297.98 1108.81 1297.56 1109.75 1296.77C1110.91 1295.79 1111.5 1294.23 1111.5 1292.15V1289.5H1111.5V1250H1107ZM1073 1284.5H1070.22C1068.53 1284.52 1067.19 1284.94 1066.25 1285.73C1065.09 1286.71 1064.5 1288.27 1064.5 1290.35V1293H1064.5V1298H1077.5V1284.5H1073V1284.5ZM1090 1267.25H1087.22C1085.53 1267.27 1084.19 1267.69 1083.25 1268.48C1082.09 1269.46 1081.5 1271.02 1081.5 1273.1V1275.5H1081.5V1298H1094.5V1267.25H1090V1267.25ZM1115.5 1291.75L1115.49 1291.87C1115.44 1292.83 1115.03 1293.73 1114.35 1294.41L1107.85 1300.86C1107.14 1301.57 1106.19 1301.97 1105.19 1302H1060.5V1290.75L1060.51 1290.63C1060.56 1289.67 1060.97 1288.77 1061.65 1288.09L1068.15 1281.64C1068.86 1280.93 1069.81 1280.53 1070.81 1280.5H1077.5V1273.5L1077.51 1273.38C1077.56 1272.42 1077.97 1271.52 1078.65 1270.84L1085.15 1264.39C1085.86 1263.68 1086.81 1263.28 1087.81 1263.25H1094.5V1256.25L1094.51 1256.13C1094.56 1255.17 1094.97 1254.27 1095.65 1253.59L1102.15 1247.14C1102.86 1246.43 1103.81 1246.03 1104.81 1246H1115.5V1291.75Z" fill="currentColor"></path>
</g></svg>