<svg xmlns="http://www.w3.org/2000/svg" viewBox="0 0 64 64" fill="none"><g transform="translate(-1056 -1662)" fill="currentColor">
<path d="M1063 1688.56C1065.21 1688.56 1066.99 1690.34 1067 1692.55H1067V1705.06L1067 1707.84C1067.02 1709.53 1067.44 1710.86 1068.23 1711.81C1069.21 1712.97 1070.77 1713.56 1072.85 1713.56H1075.5V1713.56H1100.5V1713.56H1103.15C1105.23 1713.56 1106.79 1712.97 1107.77 1711.81C1108.56 1710.86 1108.98 1709.53 1109 1707.84V1705.06H1109V1692.55C1109.01 1690.34 1110.79 1688.56 1113 1688.56H1117C1117 1690.77 1115.21 1692.56 1113 1692.56V1707.25C1112.97 1708.25 1112.57 1709.2 1111.86 1709.91L1105.41 1716.41C1104.73 1717.09 1103.83 1717.5 1102.87 1717.55L1102.75 1717.56H1100.5V1717.56H1074.5V1717.56H1073.25L1073.13 1717.55C1072.17 1717.5 1071.27 1717.09 1070.59 1716.41L1064.14 1709.91C1063.43 1709.2 1063.03 1708.25 1063 1707.25V1692.56C1060.79 1692.56 1059 1690.77 1059 1688.56H1063ZM1078 1707.06H1074V1692.57H1078V1707.06ZM1090 1707.06H1086V1692.57H1090V1707.06ZM1102 1707.06H1098V1692.57H1102V1707.06ZM1108.14 1680.56H1113C1115.21 1680.56 1117 1682.35 1117 1684.56H1059C1059 1682.35 1060.79 1680.56 1063 1680.56H1067.86L1081.98 1666.44L1084.81 1669.26L1073.52 1680.56H1102.48L1091.19 1669.26L1094.02 1666.44L1108.14 1680.56Z" fill="currentColor"></path>
</g></svg>