<svg xmlns="http://www.w3.org/2000/svg" viewBox="0 0 64 64" fill="none"><g transform="translate(-728 -1662)" fill="currentColor">
<path d="M766 1683.73H776.624L776.737 1683.74C777.697 1683.79 778.6 1684.2 779.279 1684.88C781.372 1686.99 782.648 1689.77 782.879 1692.73C782.954 1693.69 782.673 1694.64 782.088 1695.41L782.019 1695.5L758 1723H754V1704.27H743.376L743.263 1704.26C742.303 1704.21 741.399 1703.8 740.72 1703.12C738.628 1701.01 737.352 1698.23 737.121 1695.27C737.046 1694.31 737.327 1693.36 737.912 1692.59L737.98 1692.5L762 1665H766V1683.73ZM740.753 1695.41C740.321 1695.91 739.968 1696.42 739.697 1696.91C738.991 1698.21 739.716 1699.79 741.16 1700.1C741.712 1700.21 742.319 1700.27 742.979 1700.27L754 1700.27H758V1716.92L779.248 1692.59C779.68 1692.09 780.032 1691.59 780.303 1691.09C781.01 1689.79 780.284 1688.21 778.841 1687.9C778.289 1687.79 777.681 1687.73 777.021 1687.73L762 1687.73V1671.08L740.753 1695.41Z" fill="currentColor"></path>
</g></svg>