<svg xmlns="http://www.w3.org/2000/svg" viewBox="0 0 64 64" fill="none"><g transform="translate(-400 -1242)" fill="currentColor">
<path d="M438.194 1246C439.195 1246.03 440.14 1246.43 440.853 1247.14L447.35 1253.59C448.033 1254.27 448.439 1255.17 448.493 1256.13L448.5 1256.25V1259.5H450.694C451.695 1259.53 452.64 1259.93 453.353 1260.64L459.85 1267.09C460.533 1267.77 460.939 1268.67 460.993 1269.63L461 1269.75V1291.75L460.993 1291.87C460.939 1292.83 460.533 1293.73 459.85 1294.41L453.353 1300.86C452.64 1301.57 451.695 1301.97 450.694 1302H413.306C412.305 1301.97 411.36 1301.57 410.647 1300.86L404.15 1294.41C403.467 1293.73 403.061 1292.83 403.007 1291.87L403 1291.75V1269.75L403.007 1269.63C403.061 1268.67 403.467 1267.77 404.15 1267.09L410.647 1260.64C411.36 1259.93 412.305 1259.53 413.306 1259.5H416.5V1256.25L416.507 1256.13C416.561 1255.17 416.967 1254.27 417.65 1253.59L424.147 1247.14C424.86 1246.43 425.805 1246.03 426.806 1246H438.194ZM415.5 1263.5L412.718 1263.5C411.03 1263.52 409.693 1263.94 408.748 1264.73C407.587 1265.71 406.998 1267.27 406.998 1269.35V1272H407V1289.5H406.998V1292.15C406.998 1294.23 407.587 1295.79 408.748 1296.77C409.693 1297.56 411.03 1297.98 412.718 1298H415.5V1298H448.5V1298H451.282C452.97 1297.98 454.307 1297.56 455.252 1296.77C456.413 1295.79 457.002 1294.23 457.002 1292.15V1289.5H457V1272H457.002V1269.35C457.002 1267.27 456.413 1265.71 455.252 1264.73C454.307 1263.94 452.97 1263.52 451.282 1263.5L448.5 1263.5H415.5ZM429 1250L426.218 1250C424.53 1250.02 423.193 1250.44 422.248 1251.23C421.087 1252.21 420.498 1253.77 420.498 1255.85V1259.5H444.502V1255.85C444.502 1253.77 443.913 1252.21 442.752 1251.23C441.807 1250.44 440.47 1250.02 438.782 1250H436V1250H429Z" fill="currentColor"></path>
</g></svg>