<svg xmlns="http://www.w3.org/2000/svg" viewBox="0 0 64 64" fill="none"><g transform="translate(-728 -1242)" fill="currentColor">
<path d="M761.694 1244.98C762.695 1245 763.64 1245.41 764.353 1246.11L770.85 1252.57C771.533 1253.25 771.939 1254.15 771.993 1255.11L772 1255.22V1261.98H777.694C778.695 1262 779.64 1262.41 780.353 1263.11L786.85 1269.57C787.533 1270.25 787.939 1271.15 787.993 1272.11L788 1272.22V1302.98H732V1255.22L732.007 1255.11C732.061 1254.15 732.467 1253.25 733.15 1252.57L739.647 1246.11C740.36 1245.41 741.305 1245 742.306 1244.98H761.694ZM744.5 1248.98H741.718C740.03 1249 738.693 1249.41 737.748 1250.21C736.587 1251.19 735.998 1252.74 735.998 1254.83V1257.48H736V1298.98H744.5V1282.48H759.5V1298.98H768V1257.48H768.002V1254.83C768.002 1252.74 767.413 1251.19 766.252 1250.21C765.307 1249.41 763.97 1249 762.282 1248.98L759.5 1248.98H744.5V1248.98ZM748.5 1298.98H755.5V1286.48H748.5V1298.98ZM772 1298.98H784V1274.48H784.002V1271.83C784.002 1269.74 783.413 1268.19 782.252 1267.21C781.307 1266.41 779.97 1266 778.282 1265.98L775.5 1265.98H772V1298.98ZM759.5 1273.48H744.5V1269.48H759.5V1273.48ZM759.5 1262.48H744.5V1258.48H759.5V1262.48Z" fill="currentColor"></path>
</g></svg>