<svg xmlns="http://www.w3.org/2000/svg" viewBox="0 0 64 64" fill="none"><g transform="translate(-892 -612)" fill="currentColor">
<path d="M949 657.5V642.5H899V657.5H898.998V660.15C898.998 662.235 899.587 663.788 900.748 664.767C901.693 665.563 903.03 665.978 904.718 665.999H907.5V666H940.5V665.999H943.282C944.97 665.978 946.307 665.563 947.252 664.767C948.413 663.788 949.002 662.235 949.002 660.15V657.5H949ZM904.718 627.001C903.03 627.022 901.693 627.437 900.748 628.233C899.587 629.212 898.998 630.765 898.998 632.85V635.5H899V638.5H949V635.5H949.002V632.85C949.002 630.765 948.413 629.212 947.252 628.233C946.307 627.437 944.97 627.022 943.282 627.001L940.5 627H939V632.5H935V627H913V632.5H909V627H907.5L904.718 627.001ZM953 659.754L952.993 659.866C952.939 660.827 952.533 661.73 951.85 662.409L945.353 668.863C944.64 669.57 943.695 669.974 942.694 670H905.306C904.305 669.974 903.36 669.57 902.647 668.863L896.15 662.409C895.467 661.73 895.061 660.827 895.007 659.866L895 659.754V633.246L895.007 633.134C895.061 632.173 895.467 631.27 896.15 630.591L902.647 624.137C903.36 623.43 904.305 623.026 905.306 623H909V617.5H913V623H935V617.5H939V623H942.694C943.695 623.026 944.64 623.43 945.353 624.137L951.85 630.591C952.533 631.27 952.939 632.173 952.993 633.134L953 633.246V659.754Z" fill="currentColor"></path>
</g></svg>