<svg xmlns="http://www.w3.org/2000/svg" viewBox="0 0 64 64" fill="none"><g transform="translate(-1056 -612)" fill="currentColor">
<path d="M1113 655V638H1063V655H1063V657.65C1063 659.735 1063.59 661.288 1064.75 662.267C1065.69 663.063 1067.03 663.478 1068.72 663.499H1071.5V663.5H1104.5V663.499H1107.28C1108.97 663.478 1110.31 663.063 1111.25 662.267C1112.41 661.288 1113 659.735 1113 657.65V655H1113ZM1088 650.5H1071V646.5H1088V650.5ZM1113 633V630.35C1113 628.265 1112.41 626.712 1111.25 625.733C1110.31 624.937 1108.97 624.522 1107.28 624.501L1104.5 624.5H1071.5L1068.72 624.501C1067.03 624.522 1065.69 624.937 1064.75 625.733C1063.59 626.712 1063 628.265 1063 630.35V633H1063V634H1113V633H1113ZM1117 657.254L1116.99 657.366C1116.94 658.327 1116.53 659.23 1115.85 659.909L1109.35 666.363C1108.64 667.07 1107.69 667.474 1106.69 667.5H1069.31C1068.31 667.474 1067.36 667.07 1066.65 666.363L1060.15 659.909C1059.47 659.23 1059.06 658.327 1059.01 657.366L1059 657.254V630.746L1059.01 630.634C1059.06 629.673 1059.47 628.77 1060.15 628.091L1066.65 621.637C1067.36 620.93 1068.31 620.526 1069.31 620.5H1106.69C1107.69 620.526 1108.64 620.93 1109.35 621.637L1115.85 628.091C1116.53 628.77 1116.94 629.673 1116.99 630.634L1117 630.746V657.254Z" fill="currentColor"></path>
</g></svg>