<svg xmlns="http://www.w3.org/2000/svg" viewBox="0 0 64 64" fill="none"><g transform="translate(-1220 -612)" fill="currentColor">
<path d="M1270.69 616C1271.69 616.026 1272.64 616.43 1273.35 617.137L1279.85 623.591C1280.53 624.27 1280.94 625.173 1280.99 626.134L1281 626.246V649.754L1280.99 649.866C1280.94 650.827 1280.53 651.73 1279.85 652.409L1273.35 658.863C1272.64 659.57 1271.69 659.974 1270.69 660H1260.5V672H1243.5V660H1233.31C1232.31 659.974 1231.36 659.57 1230.65 658.863L1224.15 652.409C1223.47 651.73 1223.06 650.827 1223.01 649.866L1223 649.754V626.246L1223.01 626.134C1223.06 625.173 1223.47 624.27 1224.15 623.591L1230.65 617.137C1231.36 616.43 1232.31 616.026 1233.31 616H1270.69ZM1247.5 660V668H1256.5V660H1247.5ZM1227 650.15C1227 652.235 1227.59 653.788 1228.75 654.767C1229.69 655.563 1231.03 655.978 1232.72 655.999H1235.5V656H1268.5V655.999H1271.28C1272.97 655.978 1274.31 655.563 1275.25 654.767C1276.41 653.788 1277 652.235 1277 650.15V647.5H1227V650.15ZM1232.72 620.001C1231.03 620.022 1229.69 620.437 1228.75 621.233C1227.59 622.212 1227 623.765 1227 625.85V628.5H1227V643.5H1277V628.5H1277V625.85C1277 623.765 1276.41 622.212 1275.25 621.233C1274.31 620.437 1272.97 620.022 1271.28 620.001L1268.5 620H1235.5L1232.72 620.001Z" fill="currentColor"></path>
</g></svg>