<svg xmlns="http://www.w3.org/2000/svg" viewBox="0 0 64 64" fill="none"><g transform="translate(-892 -1242)" fill="currentColor">
<path d="M942.665 1258.5C943.665 1258.53 944.61 1258.93 945.323 1259.64L951.82 1266.09C952.503 1266.77 952.909 1267.67 952.963 1268.63L952.97 1268.75V1287.25L952.963 1287.37C952.909 1288.33 952.503 1289.23 951.82 1289.91L945.323 1296.36C944.61 1297.07 943.665 1297.47 942.665 1297.5H913.276C912.276 1297.47 911.33 1297.07 910.618 1296.36L904.121 1289.91C903.437 1289.23 903.031 1288.33 902.977 1287.37L902.97 1287.25V1268.75L902.977 1268.63C903.031 1267.67 903.437 1266.77 904.121 1266.09L910.618 1259.64C911.33 1258.93 912.276 1258.53 913.276 1258.5H942.665ZM912.688 1262.5C911 1262.52 909.663 1262.94 908.718 1263.73C907.557 1264.71 906.968 1266.27 906.968 1268.35V1271H906.97V1285H906.968V1287.65C906.968 1289.73 907.557 1291.29 908.718 1292.27C909.663 1293.06 911 1293.48 912.688 1293.5H915.47V1293.5H940.47V1293.5H943.252C944.94 1293.48 946.277 1293.06 947.222 1292.27C948.383 1291.29 948.972 1289.73 948.972 1287.65V1285H948.97V1271H948.972V1268.35C948.972 1266.27 948.383 1264.71 947.222 1263.73C946.277 1262.94 944.94 1262.52 943.252 1262.5L940.47 1262.5H915.47L912.688 1262.5ZM927.97 1267.75C933.631 1267.75 938.22 1272.34 938.22 1278C938.22 1283.66 933.631 1288.25 927.97 1288.25C922.309 1288.25 917.72 1283.66 917.72 1278C917.721 1272.34 922.31 1267.75 927.97 1267.75ZM935.47 1250.5C937.679 1250.5 939.47 1252.29 939.47 1254.5H907.47L904.688 1254.5C903 1254.52 901.664 1254.94 900.718 1255.73C899.557 1256.71 898.968 1258.27 898.968 1260.35V1262H898.97V1286C896.761 1286 894.97 1284.21 894.97 1282V1260.75L894.977 1260.63C895.031 1259.67 895.437 1258.77 896.121 1258.09L902.618 1251.64C903.33 1250.93 904.276 1250.53 905.276 1250.5H935.47ZM923.503 1271.78C922.537 1271.78 921.753 1272.57 921.753 1273.53V1282.47C921.754 1283.43 922.537 1284.22 923.503 1284.22H932.438C933.404 1284.22 934.188 1283.43 934.188 1282.47V1273.53C934.188 1272.57 933.404 1271.78 932.438 1271.78H923.503Z" fill="currentColor"></path>
</g></svg>