<svg xmlns="http://www.w3.org/2000/svg" viewBox="0 0 64 64" fill="none"><g transform="translate(-1220 -1662)" fill="currentColor">
<path d="M1242.25 1713.5C1244.32 1713.5 1246 1715.18 1246 1717.25C1246 1719.32 1244.32 1721 1242.25 1721C1240.18 1721 1238.5 1719.32 1238.5 1717.25C1238.5 1715.18 1240.18 1713.5 1242.25 1713.5ZM1265.25 1713.5C1267.32 1713.5 1269 1715.18 1269 1717.25C1269 1719.32 1267.32 1721 1265.25 1721C1263.18 1721 1261.5 1719.32 1261.5 1717.25C1261.5 1715.18 1263.18 1713.5 1265.25 1713.5ZM1225.5 1670.5C1230.63 1670.5 1234.97 1673.86 1236.45 1678.5H1277C1279.21 1678.5 1281 1680.29 1281 1682.5V1692.54C1281 1693.77 1280.5 1694.96 1279.63 1695.83L1267.28 1708.13C1266.43 1708.97 1265.31 1709.45 1264.12 1709.49L1260.5 1709.5H1243.3C1242.3 1709.47 1241.36 1709.07 1240.65 1708.36L1234.15 1701.91C1233.47 1701.23 1233.06 1700.33 1233.01 1699.37L1233 1699.25V1677.5C1233 1675.84 1231.66 1674.5 1230 1674.5H1225C1223.9 1674.5 1223 1673.6 1223 1672.5C1223 1671.4 1223.9 1670.5 1225 1670.5H1225.5ZM1237 1697H1237V1699.65C1237 1701.73 1237.59 1703.29 1238.75 1704.27C1239.69 1705.06 1241.03 1705.48 1242.72 1705.5H1245.5V1705.5H1260.5L1262.31 1705.47C1266.63 1705.43 1269.4 1703.43 1272.02 1700.82C1274.68 1698.16 1276.99 1695.01 1276.99 1690.59L1277 1689V1682.5H1237V1697Z" fill="currentColor"></path>
</g></svg>