<svg xmlns="http://www.w3.org/2000/svg" viewBox="0 0 64 64" fill="none"><g transform="translate(-728 -1452)" fill="currentColor">
<path d="M778.694 1457.75C779.695 1457.78 780.64 1458.18 781.353 1458.89L787.85 1465.34C788.533 1466.02 788.939 1466.92 788.993 1467.88L789 1468V1489.5L788.993 1489.62C788.939 1490.58 788.533 1491.48 787.85 1492.16L781.353 1498.61C780.64 1499.32 779.695 1499.72 778.694 1499.75H760.551L755.066 1509.25C754.709 1509.87 754.048 1510.25 753.334 1510.25C752.619 1510.25 751.959 1509.87 751.602 1509.25L746.117 1499.75H741.306C740.305 1499.72 739.36 1499.32 738.647 1498.61L732.15 1492.16C731.467 1491.48 731.061 1490.58 731.007 1489.62L731 1489.5V1468L731.007 1467.88C731.061 1466.92 731.467 1466.02 732.15 1465.34L738.647 1458.89C739.36 1458.18 740.305 1457.78 741.306 1457.75H778.694ZM740.718 1461.75C739.03 1461.77 737.693 1462.19 736.748 1462.98C735.587 1463.96 734.998 1465.52 734.998 1467.6V1470.25H735V1487.75H734.998V1489.9C734.998 1491.98 735.587 1493.54 736.748 1494.52C737.693 1495.31 739.03 1495.73 740.718 1495.75H743.5V1495.75H745.649C747.368 1495.75 748.955 1496.67 749.814 1498.16L750.735 1499.75L753.334 1504.25L755.932 1499.75L756.853 1498.16C757.712 1496.67 759.3 1495.75 761.019 1495.75H776.5V1495.75H779.282C780.97 1495.73 782.307 1495.31 783.252 1494.52C784.413 1493.54 785.002 1491.98 785.002 1489.9V1487.75H785V1470.25H785.002V1467.6C785.002 1465.52 784.413 1463.96 783.252 1462.98C782.307 1462.19 780.97 1461.77 779.282 1461.75L776.5 1461.75H743.5L740.718 1461.75Z" fill="currentColor"></path>
</g></svg>