<svg xmlns="http://www.w3.org/2000/svg" viewBox="0 0 64 64" fill="none"><g transform="translate(-1056 -1452)" fill="currentColor">
<path d="M1093.69 1455C1094.69 1455.03 1095.64 1455.43 1096.35 1456.14L1102.85 1462.59C1103.53 1463.27 1103.94 1464.17 1103.99 1465.13L1104 1465.25V1472H1105.69C1106.69 1472.03 1107.64 1472.43 1108.35 1473.14L1114.85 1479.59C1115.53 1480.27 1115.94 1481.17 1115.99 1482.13L1116 1482.25V1502.75L1115.99 1502.87C1115.94 1503.83 1115.53 1504.73 1114.85 1505.41L1108.35 1511.86C1107.64 1512.57 1106.69 1512.97 1105.69 1513H1103.5V1513H1072.5V1513H1070.31C1069.31 1512.97 1068.36 1512.57 1067.65 1511.86L1061.15 1505.41C1060.47 1504.73 1060.06 1503.83 1060.01 1502.87L1060 1502.75V1465.25L1060.01 1465.13C1060.06 1464.17 1060.47 1463.27 1061.15 1462.59L1067.65 1456.14C1068.36 1455.43 1069.31 1455.03 1070.31 1455H1093.69ZM1072.5 1459H1069.72C1068.03 1459.02 1066.69 1459.44 1065.75 1460.23C1064.59 1461.21 1064 1462.77 1064 1464.85V1467.5H1064V1501.51H1064V1503.15C1064 1505.23 1064.59 1506.79 1065.75 1507.77C1066.69 1508.56 1068.03 1508.98 1069.72 1509H1103.96C1101.77 1508.98 1100 1507.2 1100 1505V1467.5H1100V1464.85C1100 1462.77 1099.41 1461.21 1098.25 1460.23C1097.31 1459.44 1095.97 1459.02 1094.28 1459L1091.5 1459H1072.5V1459ZM1104 1509H1106.28C1107.97 1508.98 1109.31 1508.56 1110.25 1507.77C1111.41 1506.79 1112 1505.23 1112 1503.15V1500.5H1112V1484.5H1112V1481.85C1112 1479.77 1111.41 1478.21 1110.25 1477.23C1109.31 1476.44 1107.97 1476.02 1106.28 1476H1104V1509ZM1084 1482H1072V1478H1084V1482ZM1092 1473H1072V1469H1092V1473Z" fill="currentColor"></path>
</g></svg>