<svg xmlns="http://www.w3.org/2000/svg" viewBox="0 0 64 64" fill="none"><g transform="translate(-400 -612)" fill="currentColor">
<path fill-rule="evenodd" clip-rule="evenodd" d="M423.251 635.93L423.253 635.972L423.255 636.013L423.251 635.93Z" fill="currentColor"></path>
<path d="M432.5 645.389L442.677 649.862L441.068 653.524L428.5 648V630.5H432.5V645.389Z" fill="currentColor"></path>
<path fill-rule="evenodd" clip-rule="evenodd" d="M443.118 616.014C444.308 616.045 445.431 616.525 446.276 617.367L458.633 629.669C459.502 630.535 460 631.734 460 632.96V655.04C460 656.266 459.502 657.465 458.633 658.331L446.276 670.633C445.431 671.475 444.308 671.955 443.118 671.986H420.882C419.692 671.955 418.569 671.475 417.724 670.633L405.367 658.33C404.498 657.465 404 656.266 404 655.04V632.96C404 631.734 404.498 630.535 405.367 629.669L417.724 617.367C418.569 616.525 419.692 616.045 420.882 616.014H443.118ZM422.688 620.027C418.365 620.071 415.596 622.066 412.98 624.679C410.318 627.339 408.012 630.489 408.012 634.909V653.091C408.012 657.511 410.318 660.661 412.98 663.321C415.596 665.934 418.365 667.929 422.688 667.973H441.312C445.635 667.929 448.404 665.934 451.02 663.321C453.682 660.661 455.988 657.511 455.988 653.091V634.909C455.988 630.489 453.682 627.339 451.02 624.679C448.404 622.066 445.635 620.071 441.312 620.027H422.688Z" fill="currentColor"></path>
</g></svg>