<svg xmlns="http://www.w3.org/2000/svg" viewBox="0 0 64 64" fill="none"><g transform="translate(-400 -192)" fill="currentColor">
<path fill-rule="evenodd" clip-rule="evenodd" d="M441.694 195C442.695 195.026 443.64 195.429 444.353 196.136L450.85 202.591C451.533 203.27 451.939 204.173 451.993 205.133L452 205.246V242.754L451.993 242.867C451.939 243.827 451.533 244.73 450.85 245.409L444.353 251.864C443.64 252.571 442.695 252.974 441.694 253H422.306C421.305 252.974 420.36 252.571 419.647 251.864L413.15 245.409C412.467 244.73 412.061 243.827 412.007 242.867L412 242.754V205.246L412.007 205.133C412.061 204.173 412.467 203.27 413.15 202.591L419.647 196.136C420.36 195.429 421.305 195.026 422.306 195H441.694ZM416 241H415.998V243.151C415.998 245.235 416.587 246.788 417.748 247.767C418.693 248.563 420.03 248.978 421.717 248.999H424.5V249H439.5V248.999H442.283C443.97 248.978 445.307 248.563 446.252 247.767C447.413 246.788 448.002 245.235 448.002 243.151V241H448V236.74L444.353 240.364C443.64 241.071 442.695 241.474 441.694 241.5H422.306C421.305 241.474 420.36 241.071 419.647 240.364L416 236.74V241ZM416 231.76C416.02 233.79 416.607 235.305 417.748 236.267C418.693 237.063 420.03 237.478 421.717 237.499H424.5V237.5H439.5V237.499H442.283C443.97 237.478 445.307 237.063 446.252 236.267C447.393 235.305 447.98 233.79 448 231.76V225.24L444.353 228.864C443.64 229.571 442.695 229.974 441.694 230H422.306C421.305 229.974 420.36 229.571 419.647 228.864L416 225.24V231.76ZM416 220.26C416.02 222.29 416.607 223.805 417.748 224.767C418.693 225.563 420.03 225.978 421.717 225.999H424.5V226H439.5V225.999H442.283C443.97 225.978 445.307 225.563 446.252 224.767C447.393 223.805 447.98 222.29 448 220.26V214.24L444.353 217.864C443.64 218.571 442.695 218.974 441.694 219H422.306C421.305 218.974 420.36 218.571 419.647 217.864L416 214.24V220.26ZM424.5 199.001H421.717C420.03 199.022 418.693 199.437 417.748 200.233C416.587 201.212 415.998 202.765 415.998 204.849V208.5H416V209.26C416.02 211.29 416.607 212.805 417.748 213.767C418.693 214.563 420.03 214.978 421.717 214.999H424.5V215H439.5V214.999H442.283C443.97 214.978 445.307 214.563 446.252 213.767C447.393 212.805 447.98 211.29 448 209.26V208.5H448.002V204.849C448.002 202.765 447.413 201.212 446.252 200.233C445.307 199.437 443.97 199.022 442.283 199.001H439.5V199H424.5V199.001Z" fill="currentColor"></path>
</g></svg>