<svg xmlns="http://www.w3.org/2000/svg" viewBox="0 0 64 64" fill="none"><g transform="translate(-236 -1452)" fill="currentColor">
<path d="M288.5 1503.5C288.5 1505.71 286.709 1507.5 284.5 1507.5H244C241.791 1507.5 240 1505.71 240 1503.5H288.5ZM284.5 1465.5H285.625V1465.5C291.228 1465.57 295.75 1470.13 295.75 1475.75C295.75 1481.37 291.228 1485.93 285.625 1486V1486H284.5V1488.25L284.493 1488.37C284.439 1489.33 284.033 1490.23 283.35 1490.91L276.853 1497.36C276.14 1498.07 275.194 1498.47 274.194 1498.5H254.306C253.306 1498.47 252.36 1498.07 251.647 1497.36L245.15 1490.91C244.467 1490.23 244.061 1489.33 244.007 1488.37L244 1488.25V1460.5H284.5V1465.5ZM248 1486.5H247.998V1488.65C247.998 1490.74 248.587 1492.29 249.748 1493.27C250.693 1494.06 252.03 1494.48 253.718 1494.5H256.5V1494.5H272V1494.5H274.783C276.471 1494.48 277.807 1494.06 278.752 1493.27C279.913 1492.29 280.502 1490.74 280.502 1488.65V1486.5H280.5V1464.5H248V1486.5ZM284.5 1469.5V1482H285.5V1482H290C290.966 1482 291.75 1481.21 291.75 1480.25V1471.25C291.75 1470.29 290.966 1469.5 290 1469.5H285.5V1469.5H284.5Z" fill="currentColor"></path>
</g></svg>