<svg xmlns="http://www.w3.org/2000/svg" viewBox="0 0 64 64" fill="none"><g transform="translate(-728 -1872)" fill="currentColor">
<path d="M740 1903.5C742.209 1903.5 744 1905.29 744 1907.5V1933H740V1903.5ZM753 1933H749V1907.5C749 1905.29 750.791 1903.5 753 1903.5V1933ZM782.382 1875.01C783.51 1875.01 784.433 1875.89 784.494 1877H784.5V1933H780.5V1879.61C778.124 1880.4 776.267 1881.89 774.48 1883.68C771.818 1886.34 769.512 1889.49 769.512 1893.91L769.5 1895.5V1912H771.5C773.709 1912 775.5 1913.79 775.5 1916V1933H771.5V1916H769.5C767.291 1916 765.5 1914.21 765.5 1912V1891.96C765.5 1890.73 765.998 1889.53 766.867 1888.67L779.224 1876.37C780.069 1875.53 781.192 1875.04 782.382 1875.01ZM739.5 1903C737.291 1903 735.5 1901.21 735.5 1899V1875H739.5V1903ZM757.5 1899C757.5 1901.21 755.709 1903 753.5 1903V1875H757.5V1899ZM748.329 1896H744.329V1875H748.329V1896Z" fill="currentColor"></path>
</g></svg>