<svg xmlns="http://www.w3.org/2000/svg" viewBox="0 0 64 64" fill="none"><g transform="translate(-1056 -1032)" fill="currentColor">
<path fill-rule="evenodd" clip-rule="evenodd" d="M1091.43 1035C1092.75 1035 1094.03 1035.53 1094.96 1036.46L1110.53 1052.04C1111.47 1052.97 1112 1054.24 1112 1055.57L1112 1082.75L1111.99 1082.87C1111.94 1083.83 1111.53 1084.73 1110.85 1085.41L1104.35 1091.86C1103.64 1092.57 1102.69 1092.97 1101.69 1093H1074.31C1073.31 1092.97 1072.36 1092.57 1071.65 1091.86L1065.15 1085.41C1064.47 1084.73 1064.06 1083.83 1064.01 1082.87L1064 1082.75V1045.25L1064.01 1045.13C1064.06 1044.17 1064.47 1043.27 1065.15 1042.59L1071.65 1036.14C1072.36 1035.43 1073.31 1035.03 1074.31 1035H1091.43ZM1076.5 1039H1073.72C1072.03 1039.02 1070.69 1039.44 1069.75 1040.23C1068.59 1041.21 1068 1042.76 1068 1044.85V1047.5H1068V1080.5H1068V1083.15C1068 1085.24 1068.59 1086.79 1069.75 1087.77C1070.69 1088.56 1072.03 1088.98 1073.72 1089H1076.5V1089H1099.5V1089H1102.28C1103.97 1088.98 1105.31 1088.56 1106.25 1087.77C1107.41 1086.79 1108 1085.24 1108 1083.15V1080.5H1108V1058.5H1098.81C1097.81 1058.47 1096.86 1058.07 1096.15 1057.36L1089.65 1050.91C1088.97 1050.23 1088.56 1049.33 1088.51 1048.37L1088.5 1048.25V1039H1076.5V1039ZM1092.5 1046H1092.5V1048.65C1092.5 1050.74 1093.09 1052.29 1094.25 1053.27C1095.19 1054.06 1096.53 1054.48 1098.22 1054.5H1101V1054.5H1107.34L1092.5 1039.66V1046Z" fill="currentColor"></path>
</g></svg>