<svg xmlns="http://www.w3.org/2000/svg" viewBox="0 0 64 64" fill="none"><g transform="translate(-1220 -402)" fill="currentColor">
<path fill-rule="evenodd" clip-rule="evenodd" d="M1263.12 406.014C1264.31 406.045 1265.43 406.525 1266.28 407.367L1278.63 419.669C1279.5 420.535 1280 421.734 1280 422.96V445.04C1280 446.266 1279.5 447.465 1278.63 448.331L1266.28 460.633C1265.43 461.475 1264.31 461.955 1263.12 461.986H1240.88C1239.69 461.955 1238.57 461.475 1237.72 460.633L1225.37 448.33C1224.5 447.465 1224 446.266 1224 445.04V422.96C1224 421.734 1224.5 420.535 1225.37 419.669L1237.72 407.367C1238.57 406.525 1239.69 406.045 1240.88 406.014H1263.12ZM1228.01 443.091C1228.01 447.511 1230.32 450.661 1232.98 453.321C1235.6 455.934 1238.36 457.929 1242.69 457.973H1246.31L1239.19 444.713C1238.41 443.259 1238 441.633 1238 439.981V436H1228.01V443.091ZM1266 439.981C1266 441.633 1265.59 443.259 1264.81 444.713L1257.69 457.973H1261.31C1265.64 457.929 1268.4 455.934 1271.02 453.321C1273.68 450.661 1275.99 447.511 1275.99 443.091V436H1266V439.981ZM1242 442.014C1241.87 445.023 1242.93 447.747 1244.27 450.262C1245.98 453.473 1248.01 456.153 1252 457.483C1255.99 456.153 1258.02 453.473 1259.73 450.262C1261.07 447.747 1262.13 445.023 1262 442.014L1262 436H1242L1242 442.014ZM1242.69 410.027C1238.36 410.071 1235.6 412.066 1232.98 414.679C1230.32 417.339 1228.01 420.489 1228.01 424.909V432H1238V427.962C1238 426.311 1238.41 424.685 1239.19 423.23L1246.28 410.027H1242.69ZM1252 410.459C1248.01 411.789 1245.98 414.471 1244.27 417.682C1242.93 420.197 1241.87 422.921 1242 425.93L1242 432H1262L1262 425.93C1262.13 422.921 1261.07 420.197 1259.73 417.682C1258.02 414.471 1255.99 411.789 1252 410.459ZM1264.81 423.23C1265.59 424.685 1266 426.311 1266 427.962V432H1275.99V424.909C1275.99 420.489 1273.68 417.339 1271.02 414.679C1268.4 412.066 1265.64 410.071 1261.31 410.027H1257.72L1264.81 423.23Z" fill="currentColor"></path>
</g></svg>