<svg xmlns="http://www.w3.org/2000/svg" viewBox="0 0 64 64" fill="none"><g transform="translate(-236 -612)" fill="currentColor">
<path fill-rule="evenodd" clip-rule="evenodd" d="M276.694 616.5C277.695 616.526 278.64 616.929 279.353 617.636L285.85 624.091C286.533 624.77 286.939 625.673 286.993 626.633L287 626.736L287 633.098C292.642 633.833 297 638.657 297 644.5V647.5C297 653.343 292.643 658.168 287 658.903V661.194C286.974 662.195 286.571 663.14 285.864 663.853L279.409 670.35C278.73 671.033 277.827 671.439 276.867 671.493L276.754 671.5H269.999C268.895 671.5 268 670.605 268 669.501C268 668.397 268.895 667.502 269.999 667.502H277.151C279.235 667.502 280.788 666.913 281.767 665.752C282.563 664.807 282.978 663.47 282.999 661.783L283 661.778L283 661.778V659C281.619 659 280.5 657.881 280.5 656.5V635.5C280.5 634.119 281.619 633 283 633V626.736H283.002V626.349C283.002 624.265 282.413 622.712 281.252 621.733C280.307 620.937 278.97 620.522 277.283 620.501H258.717C257.03 620.522 255.693 620.937 254.748 621.733C253.587 622.712 252.998 624.265 252.998 626.349V626.736H253V633C254.381 633 255.5 634.119 255.5 635.5V656.5C255.5 657.881 254.381 659 253 659H250.5C244.149 659 239 653.851 239 647.5V644.5C239 638.657 243.358 633.833 249 633.098V626.736L249.007 626.633C249.061 625.673 249.467 624.77 250.15 624.091L256.647 617.636C257.36 616.929 258.305 616.526 259.306 616.5H276.694ZM245 637C243.895 637 243 637.895 243 639V653C243 654.105 243.895 655 245 655H251.5V637H245ZM284.5 655H291C292.105 655 293 654.105 293 653V639C293 637.895 292.105 637 291 637H284.5V655Z" fill="currentColor"></path>
</g></svg>