<svg xmlns="http://www.w3.org/2000/svg" viewBox="0 0 64 64" fill="none"><g transform="translate(-400 -1452)" fill="currentColor">
<path fill-rule="evenodd" clip-rule="evenodd" d="M405.849 1466.4L410.799 1461.45L410.795 1461.45L412.347 1459.9C413.073 1459.21 414.026 1458.82 415.03 1458.82L424.188 1458.79C425.151 1458.79 426.077 1459.14 426.794 1459.78L426.879 1459.86L432.012 1464.99L435.547 1461.45L435.544 1461.45L437.096 1459.9C437.821 1459.21 438.775 1458.82 439.779 1458.82L448.937 1458.79C449.9 1458.79 450.826 1459.14 451.543 1459.78L451.628 1459.86L458.142 1466.37L458.154 1466.36L459.706 1467.91C460.395 1468.63 460.778 1469.59 460.782 1470.59L460.812 1479.75C460.815 1480.71 460.464 1481.64 459.823 1482.36L459.748 1482.44L431.979 1510.21L404.252 1482.48L404.177 1482.4C403.536 1481.68 403.184 1480.75 403.188 1479.79L403.218 1470.63C403.221 1469.63 403.605 1468.68 404.294 1467.95L405.845 1466.4L405.849 1466.4ZM408.675 1469.23L406.707 1471.2C405.529 1472.4 404.877 1473.64 404.772 1474.87C404.642 1476.39 405.324 1477.9 406.798 1479.38L407.612 1480.19L407.613 1480.19L431.979 1504.55L456.387 1480.15L456.388 1480.15L457.201 1479.33C458.675 1477.86 459.357 1476.34 459.228 1474.83C459.123 1473.6 458.471 1472.36 457.293 1471.15L455.369 1469.23L455.36 1469.24L450.397 1464.27L450.395 1464.28L448.52 1462.4C447.047 1460.93 445.532 1460.25 444.019 1460.38C442.864 1460.47 441.704 1461.05 440.568 1462.1L440.341 1462.31L438.373 1464.28L438.372 1464.28L432.012 1470.64L425.648 1464.27L425.646 1464.28L423.772 1462.4C422.298 1460.93 420.783 1460.25 419.27 1460.38C418.116 1460.47 416.955 1461.05 415.819 1462.1L415.592 1462.31L413.624 1464.28L413.624 1464.28L408.674 1469.23L408.675 1469.23Z" fill="currentColor"></path>
</g></svg>