<svg xmlns="http://www.w3.org/2000/svg" viewBox="0 0 64 64" fill="none"><g transform="translate(-892 -192)" fill="currentColor">
<path fill-rule="evenodd" clip-rule="evenodd" d="M924 213.75C929.661 213.75 934.25 218.34 934.25 224C934.25 229.661 929.661 234.25 924 234.25C918.339 234.25 913.75 229.661 913.75 224C913.75 218.34 918.339 213.75 924 213.75ZM919.533 217.783C918.566 217.783 917.783 218.566 917.783 219.533V228.468C917.783 229.434 918.566 230.218 919.533 230.218H928.467C929.434 230.218 930.217 229.434 930.217 228.468V219.533C930.217 218.566 929.434 217.783 928.467 217.783H919.533Z" fill="currentColor"></path>
<path fill-rule="evenodd" clip-rule="evenodd" d="M917.768 196.924C921.636 194.691 926.401 194.691 930.268 196.924L943.963 204.831C947.83 207.064 950.213 211.19 950.213 215.656V232.237C950.213 236.703 947.83 240.829 943.963 243.062L930.083 251.076C926.216 253.309 921.45 253.309 917.583 251.076L904.038 243.256C900.17 241.023 897.788 236.896 897.788 232.43V215.677C897.788 211.211 900.17 207.084 904.038 204.851L917.768 196.924ZM924.768 198.367C924.304 198.1 923.732 198.099 923.268 198.367L902.538 210.336C902.073 210.604 901.788 211.1 901.788 211.635V236.471C901.788 237.007 902.073 237.503 902.538 237.771L923.083 249.633C923.547 249.9 924.119 249.9 924.583 249.633L945.463 237.577C945.927 237.309 946.213 236.814 946.213 236.278V211.614C946.213 211.079 945.927 210.584 945.463 210.316L924.768 198.367Z" fill="currentColor"></path>
</g></svg>