<svg xmlns="http://www.w3.org/2000/svg" viewBox="0 0 64 64" fill="none"><g transform="translate(-564 -1242)" fill="currentColor">
<path d="M608.118 1246.51C609.307 1246.54 610.43 1247.03 611.276 1247.87L623.632 1260.17C624.501 1261.03 625 1262.23 625 1263.46V1284.54C625 1285.77 624.501 1286.97 623.632 1287.83L611.276 1300.13C610.43 1300.98 609.307 1301.46 608.118 1301.49H589.381C588.192 1301.46 587.069 1300.98 586.223 1300.13L573.867 1287.83C572.998 1286.97 572.5 1285.77 572.5 1284.54V1279.5H576.511V1282.59C576.511 1287.01 578.818 1290.16 581.48 1292.82C584.096 1295.43 586.864 1297.43 591.188 1297.47H606.311C610.635 1297.43 613.404 1295.43 616.02 1292.82C618.682 1290.16 620.988 1287.01 620.988 1282.59V1265.41C620.988 1260.99 618.682 1257.84 616.02 1255.18C613.404 1252.57 610.635 1250.57 606.311 1250.53H591.188C586.864 1250.57 584.096 1252.57 581.48 1255.18C578.818 1257.84 576.511 1260.49 576.511 1264.91V1268.25L580.155 1264.6L582.983 1267.43L576.353 1274.06C576.072 1274.35 575.69 1274.5 575.292 1274.5L573.703 1274.5C573.305 1274.5 572.923 1274.35 572.642 1274.06L566.012 1267.43L568.84 1264.6L572.498 1268.26L572.5 1262.96C572.5 1261.73 572.998 1261.03 573.867 1260.17L586.223 1247.87C587.069 1247.03 588.192 1246.54 589.381 1246.51H608.118ZM599 1275.89L609.178 1280.36L607.569 1284.02L595 1278.5V1261H599V1275.89Z" fill="currentColor"></path>
</g></svg>