<svg xmlns="http://www.w3.org/2000/svg" viewBox="0 0 64 64" fill="none"><g transform="translate(-892 -1452)" fill="currentColor">
<path d="M907.221 1475.7C908.002 1474.92 909.269 1474.92 910.05 1475.7L911.464 1477.11L901.485 1487.09L901.486 1487.09L899.518 1489.06C898.34 1490.27 897.688 1491.5 897.583 1492.74C897.454 1494.25 898.135 1495.76 899.609 1497.24L901.483 1499.11L901.485 1499.11L908.91 1506.53L908.908 1506.54L910.783 1508.41C912.257 1509.88 913.771 1510.57 915.284 1510.44C916.516 1510.33 917.753 1509.68 918.962 1508.5L920.929 1506.53L920.93 1506.53L930.909 1496.56L932.324 1497.97C933.105 1498.75 933.105 1500.02 932.324 1500.8L922.207 1510.91C921.481 1511.6 920.528 1511.99 919.524 1511.99L910.366 1512.02C909.403 1512.02 908.477 1511.67 907.76 1511.03L907.675 1510.96L897.063 1500.34L896.988 1500.26C896.347 1499.54 895.996 1498.62 895.999 1497.65L896.029 1488.5C896.033 1487.49 896.416 1486.54 897.105 1485.81L907.221 1475.7ZM934.611 1476.22L916.933 1493.9L914.105 1491.07L931.782 1473.39L934.611 1476.22ZM937.638 1456C938.601 1456 939.527 1456.35 940.245 1456.99L940.329 1457.06L950.941 1467.68L951.016 1467.76C951.657 1468.48 952.009 1469.4 952.006 1470.37L951.975 1479.53C951.971 1480.53 951.588 1481.48 950.899 1482.21L940.798 1492.31C940.017 1493.09 938.751 1493.09 937.969 1492.31L936.554 1490.9L946.518 1480.93L948.486 1478.96C949.664 1477.75 950.317 1476.52 950.422 1475.29C950.551 1473.77 949.869 1472.26 948.395 1470.78L946.52 1468.91L946.519 1468.91L939.094 1461.49L939.095 1461.48L937.221 1459.61C935.748 1458.14 934.233 1457.45 932.72 1457.58C931.489 1457.69 930.25 1458.34 929.042 1459.52L927.074 1461.49L917.109 1471.45L915.695 1470.04C914.914 1469.26 914.914 1467.99 915.695 1467.21L925.797 1457.11C926.522 1456.42 927.476 1456.03 928.48 1456.03L937.638 1456Z" fill="currentColor"></path>
</g></svg>