<svg xmlns="http://www.w3.org/2000/svg" viewBox="0 0 64 64" fill="none"><g transform="translate(-1220 -192)" fill="currentColor">
<path d="M1254 240H1250V227H1254V240Z" fill="currentColor"></path>
<path fill-rule="evenodd" clip-rule="evenodd" d="M1254 195C1260.63 195 1266 200.373 1266 207V213.521C1266.89 213.612 1267.71 214.002 1268.35 214.636L1274.85 221.091C1275.53 221.77 1275.94 222.673 1275.99 223.633L1276 223.746V242.754L1275.99 242.867C1275.94 243.827 1275.53 244.73 1274.85 245.409L1268.35 251.864C1267.64 252.571 1266.69 252.974 1265.69 253H1238.31C1237.31 252.974 1236.36 252.571 1235.65 251.864L1229.15 245.409C1228.47 244.73 1228.06 243.827 1228.01 242.867L1228 242.754V223.746L1228.01 223.633C1228.06 222.673 1228.47 221.77 1229.15 221.091L1235.65 214.636C1236.29 214.002 1237.11 213.612 1238 213.521V207C1238 200.373 1243.37 195 1250 195H1254ZM1240.5 217.501H1237.72C1236.03 217.522 1234.69 217.937 1233.75 218.733C1232.59 219.712 1232 221.265 1232 223.349V226H1232V240.5H1232V243.151C1232 245.235 1232.59 246.788 1233.75 247.767C1234.69 248.563 1236.03 248.978 1237.72 248.999H1240.5V249H1263.5V248.999H1266.28C1267.97 248.978 1269.31 248.563 1270.25 247.767C1271.41 246.788 1272 245.235 1272 243.151V240.5H1272V226H1272V223.349C1272 221.265 1271.41 219.712 1270.25 218.733C1269.31 217.937 1267.97 217.522 1266.28 217.501H1263.5V217.5H1240.5V217.501ZM1244.5 199C1243.12 199 1242 200.119 1242 201.5V213.5H1262V201.5C1262 200.119 1260.88 199 1259.5 199H1244.5Z" fill="currentColor"></path>
</g></svg>