<svg xmlns="http://www.w3.org/2000/svg" viewBox="0 0 64 64" fill="none"><g transform="translate(-72 -402)" fill="currentColor">
<path fill-rule="evenodd" clip-rule="evenodd" d="M122.694 410.5C123.695 410.526 124.64 410.929 125.353 411.636L131.85 418.091C132.533 418.77 132.939 419.673 132.993 420.633V447.367C132.939 448.327 132.533 449.23 131.85 449.909L125.353 456.364C124.64 457.071 123.695 457.474 122.694 457.5H85.3057C84.3054 457.474 83.3599 457.071 82.6475 456.364L76.1504 449.909C75.4673 449.23 75.0611 448.327 75.0068 447.367V420.633C75.0611 419.673 75.4673 418.77 76.1504 418.091L82.6475 411.636C83.3599 410.929 84.3054 410.526 85.3057 410.5H122.694ZM79.3252 417.953C79.1075 418.65 78.9981 419.45 78.998 420.349V447.651C78.9981 449.735 79.587 451.288 80.748 452.267C81.6933 453.063 83.0296 453.478 84.7173 453.499H123.283C124.97 453.478 126.307 453.063 127.252 452.267C128.413 451.288 129.002 449.735 129.002 447.651V420.349C129.002 419.45 128.891 418.651 128.674 417.953L108.596 438.031C106.058 440.57 101.942 440.57 99.4038 438.031L79.3252 417.953ZM84.7173 414.501C83.6902 414.514 82.7935 414.673 82.0356 414.975L82.0205 414.991L104 436.971L125.979 414.991L125.964 414.975C125.206 414.673 124.31 414.514 123.283 414.501H84.7173Z" fill="currentColor"></path>
</g></svg>