<svg xmlns="http://www.w3.org/2000/svg" viewBox="0 0 64 64" fill="none"><g transform="translate(-1220 -1242)" fill="currentColor">
<path d="M1236 1287.15C1236 1289.23 1236.59 1290.79 1237.75 1291.77C1238.69 1292.56 1240.03 1292.98 1241.72 1293H1244.5V1293H1259.5V1293H1262.28C1263.97 1292.98 1265.31 1292.56 1266.25 1291.77C1267.41 1290.79 1268 1289.23 1268 1287.15V1284.5H1272V1286.75L1271.99 1286.87C1271.94 1287.83 1271.53 1288.73 1270.85 1289.41L1264.35 1295.86C1263.64 1296.57 1262.69 1296.97 1261.69 1297H1254V1303H1250V1297H1242.31C1241.31 1296.97 1240.36 1296.57 1239.65 1295.86L1233.15 1289.41C1232.47 1288.73 1232.06 1287.83 1232.01 1286.87L1232 1286.75V1284.5H1236V1287.15ZM1262.5 1257.5V1254.85C1262.5 1252.77 1261.91 1251.21 1260.75 1250.23C1259.81 1249.44 1258.47 1249.02 1256.78 1249L1254 1249H1250V1249H1247.22C1245.53 1249.02 1244.19 1249.44 1243.25 1250.23C1242.09 1251.21 1241.5 1252.77 1241.5 1254.85V1257.5H1241.5V1276H1241.5V1278.15C1241.5 1280.23 1242.09 1281.79 1243.25 1282.77C1244.19 1283.56 1245.53 1283.98 1247.22 1284H1250V1284H1254V1284H1256.78C1258.47 1283.98 1259.81 1283.56 1260.75 1282.77C1261.91 1281.79 1262.5 1280.23 1262.5 1278.15V1276H1262.5V1257.5H1262.5ZM1266.5 1277.75L1266.49 1277.87C1266.44 1278.83 1266.03 1279.73 1265.35 1280.41L1258.85 1286.86C1258.14 1287.57 1257.19 1287.97 1256.19 1288H1247.81C1246.81 1287.97 1245.86 1287.57 1245.15 1286.86L1238.65 1280.41C1237.97 1279.73 1237.56 1278.83 1237.51 1277.87L1237.5 1277.75V1255.25L1237.51 1255.13C1237.56 1254.17 1237.97 1253.27 1238.65 1252.59L1245.15 1246.14C1245.86 1245.43 1246.81 1245.03 1247.81 1245H1256.19C1257.19 1245.03 1258.14 1245.43 1258.85 1246.14L1265.35 1252.59C1266.03 1253.27 1266.44 1254.17 1266.49 1255.13L1266.5 1255.25V1277.75Z" fill="currentColor"></path>
</g></svg>