<svg xmlns="http://www.w3.org/2000/svg" viewBox="0 0 64 64" fill="none"><g transform="translate(-236 -1872)" fill="currentColor">
<path d="M271.695 1897.5C272.696 1897.53 273.641 1897.93 274.354 1898.64L280.851 1905.09C281.534 1905.77 281.94 1906.67 281.994 1907.63L282.001 1907.75V1911.35C282.001 1912.5 282.308 1913.64 282.89 1914.63L284.406 1917.22C286.55 1920.89 283.905 1925.5 279.658 1925.5H277V1933H273V1925.48H273.001C273.01 1923.28 274.797 1921.5 277.001 1921.5H282.914L279.065 1915.62C278.371 1914.56 278.001 1913.33 278.002 1912.06L278.003 1910V1907.35C278.003 1905.27 277.414 1903.71 276.253 1902.73C275.308 1901.94 273.971 1901.52 272.283 1901.5H269.501V1901.5H266.5V1901.5H263.717C262.029 1901.52 260.692 1901.94 259.747 1902.73C258.586 1903.71 257.997 1905.27 257.997 1907.35V1910L257.999 1912.06C258 1913.33 257.63 1914.56 256.936 1915.62L253.087 1921.5H259C261.209 1921.5 263 1923.29 263 1925.5H262.999V1933H258.999V1925.5H256.343C252.096 1925.5 249.451 1920.89 251.595 1917.22L253.111 1914.63C253.693 1913.64 254 1912.5 254 1911.35V1907.75L254.007 1907.63C254.061 1906.67 254.467 1905.77 255.15 1905.09L261.647 1898.64C262.359 1897.93 263.305 1897.53 264.305 1897.5H271.695ZM268.251 1875C273.359 1875 277.501 1879.14 277.501 1884.25C277.501 1889.36 273.359 1893.5 268.251 1893.5C263.143 1893.5 259.001 1889.36 259.001 1884.25C259.001 1879.14 263.143 1875 268.251 1875ZM264.001 1879C263.449 1879 263.001 1879.45 263.001 1880V1888.5C263.001 1889.05 263.449 1889.5 264.001 1889.5H272.501C273.053 1889.5 273.501 1889.05 273.501 1888.5V1880C273.501 1879.45 273.053 1879 272.501 1879H264.001Z" fill="currentColor"></path>
</g></svg>