<svg xmlns="http://www.w3.org/2000/svg" viewBox="0 0 64 64" fill="none"><g transform="translate(-564 -1872)" fill="currentColor">
<path d="M587 1904.5H584.85C582.765 1904.5 581.212 1905.09 580.233 1906.25C579.437 1907.19 579.022 1908.53 579.001 1910.22L579 1913V1920.5L579.001 1923.28C579.022 1924.97 579.437 1926.31 580.233 1927.25C581.212 1928.41 582.765 1929 584.85 1929H587.5V1929H595V1929H597.782C599.47 1928.98 600.807 1928.56 601.752 1927.77C602.913 1926.79 603.502 1925.23 603.502 1923.15V1921.5H607.5V1922.75L607.493 1922.87C607.439 1923.83 607.033 1924.73 606.35 1925.41L599.853 1931.86C599.14 1932.57 598.195 1932.97 597.194 1933H585.246L585.134 1932.99C584.173 1932.94 583.27 1932.53 582.591 1931.85L576.137 1925.35C575.43 1924.64 575.026 1923.69 575 1922.69V1910.81C575.026 1909.81 575.43 1908.86 576.137 1908.15L582.591 1901.65C583.27 1900.97 584.173 1900.56 585.134 1900.51L585.246 1900.5H587V1904.5ZM598.5 1897C600.709 1897 602.5 1898.79 602.5 1901V1901.5C602.5 1903.16 603.843 1904.5 605.5 1904.5H613V1908.5H609.5V1908.49C604.773 1908.28 600.787 1905.23 599.217 1901H596V1909.5C596 1911.16 597.343 1912.5 599 1912.5H605C611.351 1912.5 616.5 1917.65 616.5 1924V1928H612.5V1919.5C612.5 1917.84 611.157 1916.5 609.5 1916.5H603.44V1916.5C597.117 1916.47 592 1911.33 592 1905V1901C592 1898.79 593.791 1897 596 1897H598.5ZM597.25 1875C602.358 1875 606.5 1879.14 606.5 1884.25C606.5 1889.36 602.358 1893.5 597.25 1893.5C592.142 1893.5 588 1889.36 588 1884.25C588 1879.14 592.142 1875 597.25 1875ZM593 1879C592.448 1879 592 1879.45 592 1880V1888.5C592 1889.05 592.448 1889.5 593 1889.5H601.5C602.052 1889.5 602.5 1889.05 602.5 1888.5V1880C602.5 1879.45 602.052 1879 601.5 1879H593Z" fill="currentColor"></path>
</g></svg>