<svg xmlns="http://www.w3.org/2000/svg" viewBox="0 0 64 64" fill="none"><g transform="translate(-400 -1872)" fill="currentColor">
<path d="M420.25 1920C422.459 1920 424.25 1921.79 424.25 1924V1933H420.25V1920ZM443.75 1933H439.75V1924C439.75 1921.79 441.541 1920 443.75 1920V1933ZM437.444 1897.5C438.445 1897.53 439.39 1897.93 440.103 1898.64L446.6 1905.09C447.283 1905.77 447.689 1906.67 447.743 1907.63L447.75 1907.75V1916C447.75 1918.21 445.959 1920 443.75 1920V1910H443.752V1907.35C443.752 1905.27 443.163 1903.71 442.002 1902.73C441.057 1901.94 439.72 1901.52 438.032 1901.5L435.25 1901.5H428.75V1901.5H425.968C424.28 1901.52 422.943 1901.94 421.998 1902.73C420.837 1903.71 420.248 1905.27 420.248 1907.35V1910H420.25V1920C418.041 1920 416.25 1918.21 416.25 1916V1907.75L416.257 1907.63C416.311 1906.67 416.717 1905.77 417.4 1905.09L423.897 1898.64C424.61 1897.93 425.555 1897.53 426.556 1897.5H437.444ZM432.25 1875C437.358 1875 441.5 1879.14 441.5 1884.25C441.5 1889.36 437.358 1893.5 432.25 1893.5C427.142 1893.5 423 1889.36 423 1884.25C423 1879.14 427.142 1875 432.25 1875ZM428 1879C427.448 1879 427 1879.45 427 1880V1888.5C427 1889.05 427.448 1889.5 428 1889.5H436.5C437.052 1889.5 437.5 1889.05 437.5 1888.5V1880C437.5 1879.45 437.052 1879 436.5 1879H428Z" fill="currentColor"></path>
</g></svg>