<svg xmlns="http://www.w3.org/2000/svg" viewBox="0 0 64 64" fill="none"><g transform="translate(-236 -402)" fill="currentColor">
<path fill-rule="evenodd" clip-rule="evenodd" d="M248.149 407.328C249.712 405.766 252.244 405.766 253.806 407.328L264.766 418.288C266.328 419.851 266.328 422.383 264.766 423.945L257.342 431.37L271.13 445.159L278.555 437.734C280.117 436.172 282.649 436.172 284.211 437.734L295.172 448.694C296.734 450.256 296.734 452.789 295.172 454.351L289.487 460.035C288.62 460.903 287.42 461.398 286.193 461.396L268.757 461.358C267.563 461.355 266.43 460.9 265.567 460.081L262.999 457.533L244.967 439.501L242.419 436.933C241.599 436.07 241.144 434.936 241.142 433.743L241.104 416.306C241.102 415.08 241.597 413.88 242.464 413.013L248.149 407.328ZM247.795 413.339L246.678 414.472C243.553 417.597 242.957 421.456 242.959 425.219C242.96 428.916 243.508 432.284 246.534 435.373L247.795 436.673L265.827 454.704L267.127 455.967C270.216 458.993 273.584 459.539 277.281 459.541C281.044 459.543 284.903 458.947 288.028 455.822L289.161 454.704L292.343 451.522L281.383 440.562L273.959 447.987C272.396 449.549 269.864 449.549 268.302 447.987L254.513 434.198C252.951 432.636 252.951 430.103 254.513 428.541L261.938 421.117L250.978 410.157L247.795 413.339Z" fill="currentColor"></path>
</g></svg>