<svg xmlns="http://www.w3.org/2000/svg" viewBox="0 0 64 64" fill="none"><g transform="translate(-72 -1242)" fill="currentColor">
<path d="M114.947 1292C114.947 1293.1 114.051 1294 112.947 1294H95.0112C93.9066 1294 93.0112 1293.1 93.0112 1292V1290H114.947V1292Z" fill="currentColor"></path>
<path fill-rule="evenodd" clip-rule="evenodd" d="M113.694 1245C114.695 1245.03 115.64 1245.43 116.353 1246.14L122.85 1252.59C123.533 1253.27 123.939 1254.17 123.993 1255.13L124 1255.25V1292.75L123.993 1292.87C123.939 1293.83 123.533 1294.73 122.85 1295.41L116.353 1301.86C115.64 1302.57 114.695 1302.97 113.694 1303H94.3057C93.3054 1302.97 92.3599 1302.57 91.6475 1301.86L85.1504 1295.41C84.4673 1294.73 84.0611 1293.83 84.0068 1292.87L84 1292.75V1255.25L84.0068 1255.13C84.0611 1254.17 84.4673 1253.27 85.1504 1252.59L91.6475 1246.14C92.3599 1245.43 93.3054 1245.03 94.3057 1245H113.694ZM96.5 1249H93.7173C92.0296 1249.02 90.6933 1249.44 89.748 1250.23C88.587 1251.21 87.9981 1252.76 87.998 1254.85V1257.5H88V1291H87.998V1293.15C87.9981 1295.24 88.587 1296.79 89.748 1297.77C90.6933 1298.56 92.0296 1298.98 93.7173 1299H96.5V1299H111.5V1299H114.283C115.97 1298.98 117.307 1298.56 118.252 1297.77C119.413 1296.79 120.002 1295.24 120.002 1293.15V1291H120V1257.5H120.002V1254.85C120.002 1252.76 119.413 1251.21 118.252 1250.23C117.307 1249.44 115.97 1249.02 114.283 1249H111.5V1249H96.5V1249Z" fill="currentColor"></path>
</g></svg>