<svg xmlns="http://www.w3.org/2000/svg" viewBox="0 0 64 64" fill="none"><g transform="translate(-728 -402)" fill="currentColor">
<path fill-rule="evenodd" clip-rule="evenodd" d="M765.609 415.31L743.943 409.505L743.833 409.483C742.891 409.286 741.913 409.445 741.08 409.929L733.164 414.534C733.016 414.62 732.874 414.716 732.739 414.819C731.795 415.548 732.227 416.907 733.221 417.565L752.206 430.124L746.443 435.886L741.055 435.861L740.943 435.867C739.982 435.917 739.076 436.319 738.394 436.999L731.909 443.465C731.788 443.586 731.675 443.715 731.571 443.849C730.843 444.794 731.606 445.999 732.735 446.382L743.845 450.154L747.616 461.263C748 462.392 749.204 463.155 750.149 462.427C750.283 462.324 750.412 462.211 750.533 462.09L757 455.604C757.68 454.922 758.081 454.017 758.131 453.056L758.137 452.944L758.112 447.555L763.875 441.793L776.433 460.777C777.091 461.771 778.451 462.203 779.179 461.259C779.282 461.125 779.378 460.983 779.465 460.834L784.07 452.918C784.554 452.086 784.712 451.108 784.516 450.166L784.493 450.056L778.689 428.392L786.031 421.047L786.033 421.049L787.624 419.457L787.698 419.373C788.338 418.657 788.689 417.732 788.685 416.77L789 407.266C789 407.253 789 407.24 789 407.227C788.982 406.023 787.977 405.018 786.773 405C786.76 405 786.747 405 786.734 405L777.23 405.315C776.268 405.311 775.343 405.662 774.627 406.302L774.543 406.376L765.609 415.31ZM774.229 427.195L780.734 451.474C781.274 453.487 781.107 455.14 780.239 456.385C779.939 456.816 779.552 457.199 779.082 457.531L764.539 435.477L754.107 445.909L754.105 445.915L754.142 453.359C754.151 455.443 753.57 456.999 752.413 457.983C752.014 458.324 751.542 458.596 751.003 458.798L747.012 446.986L735.201 442.995C735.403 442.457 735.675 441.985 736.015 441.585C736.999 440.429 738.555 439.847 740.639 439.857L748.084 439.893L748.087 439.889L758.522 429.46L736.468 414.916C736.8 414.446 737.183 414.06 737.614 413.76C738.859 412.892 740.511 412.725 742.525 413.264L766.801 419.771L775.78 410.796L775.778 410.794L777.65 408.923C779.121 407.452 780.634 406.772 782.145 406.902C783.26 406.998 784.381 407.543 785.48 408.52C786.457 409.619 787.002 410.74 787.098 411.855C787.228 413.366 786.548 414.879 785.077 416.35L783.206 418.222L783.204 418.22L774.229 427.195Z" fill="currentColor"></path>
</g></svg>