<svg xmlns="http://www.w3.org/2000/svg" viewBox="0 0 64 64" fill="none"><g transform="translate(-72 -1872)" fill="currentColor">
<path fill-rule="evenodd" clip-rule="evenodd" d="M103.983 1876C109.221 1876 113.54 1879.93 114.157 1885H121.678C122.678 1885.03 123.623 1885.43 124.336 1886.14L130.833 1892.59C131.516 1893.27 131.922 1894.17 131.977 1895.13L131.983 1895.25V1898.25C131.994 1898.25 132.006 1898.25 132.017 1898.26V1900C132.017 1901.11 131.121 1902 130.017 1902H125.233C124.267 1902 123.483 1902.79 123.483 1903.75V1912.75C123.483 1913.71 124.267 1914.5 125.233 1914.5H130.017C131.121 1914.5 132.017 1915.39 132.017 1916.5V1918.24C132.006 1918.25 131.994 1918.25 131.983 1918.25V1921.75L131.977 1921.87C131.922 1922.83 131.516 1923.73 130.833 1924.41L124.336 1930.86C123.623 1931.57 122.678 1931.97 121.678 1932H112.231C111.126 1932 110.231 1931.1 110.231 1930L110.231 1925.22C110.231 1924.25 109.448 1923.47 108.481 1923.47H99.4854C98.5189 1923.47 97.7354 1924.25 97.7354 1925.22V1928H97.7466V1930C97.7466 1931.1 96.8512 1932 95.7466 1932H86.2891C85.2888 1931.97 84.3433 1931.57 83.6309 1930.86L77.1338 1924.41C76.4507 1923.73 76.0445 1922.83 75.9902 1921.87L75.9834 1921.75V1895.25L75.9902 1895.13C76.0445 1894.17 76.4507 1893.27 77.1338 1892.59L83.6309 1886.14C84.3433 1885.43 85.2888 1885.03 86.2891 1885H93.8096C94.4265 1879.93 98.746 1876 103.983 1876ZM99.4834 1880C98.5169 1880 97.7334 1880.79 97.7334 1881.75V1887C97.7334 1888.1 96.8381 1889 95.7336 1889L85.7007 1889C84.013 1889.02 82.6767 1889.44 81.7314 1890.23C80.5704 1891.21 79.9815 1892.76 79.9814 1894.85V1897.5H79.9834V1919.5H79.9814V1922.15C79.9815 1924.24 80.5704 1925.79 81.7314 1926.77C82.6767 1927.56 84.013 1927.98 85.7007 1928H88.4834V1928H93.8774C94.6944 1923.16 98.9077 1919.47 103.983 1919.47C109.059 1919.47 113.272 1923.16 114.089 1928H119.483V1928H122.266C123.954 1927.98 125.29 1927.56 126.235 1926.77C127.396 1925.79 127.985 1924.24 127.985 1922.15V1918.35C123.157 1917.52 119.483 1913.31 119.483 1908.25C119.484 1903.19 123.157 1898.98 127.985 1898.15V1894.85C127.985 1892.76 127.396 1891.21 126.235 1890.23C125.29 1889.44 123.954 1889.02 122.266 1889L112.232 1889C111.127 1889 110.232 1888.1 110.232 1887V1881.75C110.232 1880.79 109.448 1880 108.482 1880H99.4834Z" fill="currentColor"></path>
</g></svg>