<svg xmlns="http://www.w3.org/2000/svg" viewBox="0 0 64 64" fill="none"><g transform="translate(-236 -1242)" fill="currentColor">
<path fill-rule="evenodd" clip-rule="evenodd" d="M269.5 1245.01L271.618 1245.01C272.808 1245.04 273.931 1245.53 274.776 1246.37L287.133 1258.67C288.002 1259.53 288.5 1260.73 288.5 1261.96V1277.54C288.5 1278.77 288.002 1279.97 287.133 1280.83L282.385 1285.56L297 1300.17L294.172 1303L279.55 1288.38L274.776 1293.13C273.931 1293.97 272.808 1294.46 271.618 1294.49L269.5 1294.49V1294.5H259.5L255.882 1294.49C254.692 1294.46 253.569 1293.97 252.724 1293.13L240.367 1280.83C239.498 1279.96 239 1278.77 239 1277.54V1261.96C239 1260.73 239.498 1259.53 240.367 1258.67L252.724 1246.37C253.569 1245.53 254.692 1245.04 255.882 1245.01L259.5 1245H269.5V1245.01ZM257.688 1249.03C253.365 1249.07 250.596 1251.07 247.98 1253.68C245.318 1256.34 243.012 1259.49 243.012 1263.91L243 1265.5V1274L243.012 1275.59C243.012 1280.01 245.318 1283.16 247.98 1285.82C250.596 1288.43 253.365 1290.43 257.688 1290.47L259.5 1290.5H268L269.812 1290.47C274.135 1290.43 276.904 1288.43 279.52 1285.82C282.182 1283.16 284.488 1280.01 284.488 1275.59L284.5 1274V1265.5L284.488 1263.91C284.488 1259.49 282.182 1256.34 279.52 1253.68C276.904 1251.07 274.135 1249.07 269.812 1249.03L268 1249H259.5L257.688 1249.03Z" fill="currentColor"></path>
</g></svg>