<svg xmlns="http://www.w3.org/2000/svg" viewBox="0 0 64 64" fill="none"><g transform="translate(-72 -1452)" fill="currentColor">
<path fill-rule="evenodd" clip-rule="evenodd" d="M122.694 1460.5C123.695 1460.53 124.64 1460.93 125.353 1461.64L131.85 1468.09C132.533 1468.77 132.939 1469.67 132.993 1470.63L133 1470.75V1497.25L132.993 1497.37C132.939 1498.33 132.533 1499.23 131.85 1499.91L125.353 1506.36C124.64 1507.07 123.695 1507.47 122.694 1507.5H85.3057C84.3054 1507.47 83.3599 1507.07 82.6475 1506.36L76.1504 1499.91C75.4673 1499.23 75.0611 1498.33 75.0068 1497.37L75 1497.25V1470.75L75.0068 1470.63C75.0611 1469.67 75.4673 1468.77 76.1504 1468.09L82.6475 1461.64C83.3599 1460.93 84.3054 1460.53 85.3057 1460.5H122.694ZM84.5 1479.5C84.5 1477.84 83.1569 1476.5 81.5 1476.5H79V1491.5H81.5C83.1569 1491.5 84.5 1490.16 84.5 1488.5V1479.5ZM106 1473.95C110.703 1474.88 114.25 1479.02 114.25 1484C114.25 1488.98 110.703 1493.12 106 1494.05V1503.5H120.5V1503.5H123.283C124.97 1503.48 126.307 1503.06 127.252 1502.27C128.413 1501.29 129.002 1499.74 129.002 1497.65V1495.33C123.603 1494.38 119.5 1489.67 119.5 1484C119.5 1478.33 123.603 1473.62 129.002 1472.67V1470.35C129.002 1468.26 128.413 1466.71 127.252 1465.73C126.307 1464.94 124.97 1464.52 123.283 1464.5H120.5V1464.5H106V1473.95ZM126.5 1476.5C124.843 1476.5 123.5 1477.84 123.5 1479.5V1488.5C123.5 1490.16 124.843 1491.5 126.5 1491.5H129V1476.5H126.5ZM99.5327 1477.78C98.5662 1477.78 97.7827 1478.57 97.7827 1479.53V1488.47C97.7828 1489.43 98.5663 1490.22 99.5327 1490.22H108.467C109.434 1490.22 110.217 1489.43 110.217 1488.47V1479.53C110.217 1478.57 109.434 1477.78 108.467 1477.78H99.5327ZM88.5 1484C88.4997 1489.67 84.3965 1494.38 78.998 1495.33V1497.65C78.9981 1499.74 79.587 1501.29 80.748 1502.27C81.6933 1503.06 83.0296 1503.48 84.7173 1503.5H87.5V1503.5H102V1494.05C97.2968 1493.12 93.7501 1488.98 93.75 1484C93.7503 1479.02 97.2968 1474.88 102 1473.95V1464.5H87.5V1464.5H84.7173C83.0296 1464.52 81.6933 1464.94 80.748 1465.73C79.587 1466.71 78.9981 1468.26 78.998 1470.35V1472.67C84.3966 1473.62 88.4997 1478.33 88.5 1484Z" fill="currentColor"></path>
</g></svg>