<svg xmlns="http://www.w3.org/2000/svg" viewBox="0 0 64 64" fill="none"><g transform="translate(-892 -402)" fill="currentColor">
<path d="M935.75 427.974L924.809 438.914C924.434 439.289 923.924 439.5 923.394 439.5H921.051C920.521 439.5 920.012 439.289 919.637 438.914L913.908 433.186L916.737 430.357L922.223 435.843L932.921 425.145L935.75 427.974Z" fill="currentColor"></path>
<path fill-rule="evenodd" clip-rule="evenodd" d="M938.944 405.5C939.945 405.526 940.89 405.929 941.603 406.636L948.1 413.091C948.783 413.77 949.189 414.673 949.243 415.633L949.25 415.746V444.092C949.25 447.129 947.63 449.935 945 451.454L927 461.846C925.144 462.918 922.856 462.918 921 461.846L903 451.454C900.37 449.935 898.75 447.129 898.75 444.092V415.746L898.757 415.633C898.811 414.673 899.217 413.77 899.9 413.091L906.397 406.636C907.11 405.929 908.055 405.526 909.056 405.5H938.944ZM911.25 409.501H908.467C906.78 409.522 905.443 409.937 904.498 410.733C903.337 411.712 902.748 413.265 902.748 415.349V418H902.75V444.958C902.75 446.03 903.322 447.021 904.25 447.557L924 458.959L943.75 447.557C944.678 447.021 945.25 446.03 945.25 444.958V418H945.252V415.349C945.252 413.265 944.663 411.712 943.502 410.733C942.557 409.937 941.22 409.522 939.533 409.501H936.75V409.5H911.25V409.501Z" fill="currentColor"></path>
</g></svg>