<svg xmlns="http://www.w3.org/2000/svg" viewBox="0 0 64 64" fill="none"><g transform="translate(-1056 -402)" fill="currentColor">
<path fill-rule="evenodd" clip-rule="evenodd" d="M1110 434.475L1117.01 435.753L1117 435.788V445.54C1117 446.766 1116.5 447.965 1115.63 448.831L1103.28 461.133C1102.43 461.975 1101.31 462.455 1100.12 462.486L1096.5 462.5H1079.5L1075.88 462.486C1074.69 462.455 1073.57 461.975 1072.72 461.133L1060.37 448.831C1059.5 447.965 1059 446.766 1059 445.54V435.769L1059 435.753L1066 434.476V425.246L1066.01 425.133C1066.06 424.173 1066.47 423.27 1067.15 422.591L1073.65 416.136C1074.36 415.429 1075.31 415.026 1076.31 415H1086V406H1090V415H1099.69C1100.69 415.026 1101.64 415.429 1102.35 416.136L1108.85 422.591C1109.53 423.27 1109.94 424.173 1109.99 425.133L1110 425.246V434.475ZM1106 427.5V424.849C1106 422.765 1105.41 421.212 1104.25 420.233C1103.31 419.437 1101.97 419.022 1100.28 419.001H1097.5V419H1078.5V419.001H1075.72C1074.03 419.022 1072.69 419.437 1071.75 420.233C1070.59 421.212 1070 422.765 1070 424.849V427.5H1070V433.746L1088 430.463L1106 433.746V427.5H1106ZM1063 439.087L1063.01 443.591C1063.01 448.011 1065.32 451.161 1067.98 453.821C1070.6 456.434 1073.36 458.429 1077.69 458.473L1079.5 458.5H1096.5L1098.31 458.473C1102.64 458.429 1105.4 456.434 1108.02 453.821C1110.68 451.161 1112.99 448.011 1112.99 443.591L1112.99 439.087L1088 434.529L1063 439.087Z" fill="currentColor"></path>
</g></svg>