<svg xmlns="http://www.w3.org/2000/svg" viewBox="0 0 64 64" fill="none"><g transform="translate(-728 -192)" fill="currentColor">
<path fill-rule="evenodd" clip-rule="evenodd" d="M747.5 204.696C752.202 205.627 755.748 209.774 755.749 214.75C755.748 219.726 752.202 223.873 747.499 224.804V252H743.499V224.804C738.795 223.873 735.249 219.726 735.249 214.75C735.249 209.774 738.796 205.625 743.5 204.695V196H747.5V204.696ZM741.031 208.533C740.065 208.533 739.281 209.316 739.281 210.283V219.218C739.281 220.184 740.065 220.968 741.031 220.968H749.966C750.932 220.968 751.716 220.184 751.716 219.218V210.283C751.716 209.316 750.932 208.533 749.966 208.533H741.031Z" fill="currentColor"></path>
<path fill-rule="evenodd" clip-rule="evenodd" d="M776.502 223.196C781.205 224.126 784.752 228.274 784.752 233.25C784.752 238.226 781.205 242.373 776.503 243.304V252H772.503V243.304C767.799 242.374 764.252 238.227 764.252 233.25C764.252 228.274 767.799 224.126 772.502 223.196V196H776.502V223.196ZM770.035 227.032C769.068 227.032 768.285 227.816 768.285 228.782V237.717C768.285 238.684 769.068 239.467 770.035 239.467H778.969C779.936 239.467 780.719 238.684 780.719 237.717V228.782C780.719 227.816 779.936 227.032 778.969 227.032H770.035Z" fill="currentColor"></path>
</g></svg>