<svg xmlns="http://www.w3.org/2000/svg" viewBox="0 0 64 64" fill="none"><g transform="translate(-72 -612)" fill="currentColor">
<path d="M99.0039 621.001H85.8135C84.1258 621.022 82.789 621.437 81.8438 622.233C80.6827 623.212 80.0938 624.765 80.0938 626.85V661.151C80.0939 663.235 80.6828 664.788 81.8438 665.767C82.789 666.563 84.1258 666.978 85.8135 666.999H99.0039V671H86.4014C85.4013 670.974 84.4556 670.571 83.7432 669.864L77.2461 663.409C76.5631 662.73 76.1569 661.828 76.1025 660.867L76.0957 660.754V627.246L76.1025 627.134C76.1568 626.173 76.563 625.27 77.2461 624.591L83.7432 618.137C84.4556 617.43 85.4011 617.026 86.4014 617H99.0039V621.001ZM121.79 617C122.79 617.026 123.736 617.43 124.448 618.137L130.945 624.591C131.628 625.27 132.035 626.173 132.089 627.134L132.096 627.246V660.754L132.089 660.867C132.034 661.828 131.628 662.73 130.945 663.409L124.448 669.864C123.736 670.571 122.79 670.974 121.79 671H109.003V666.999H122.379C124.066 666.978 125.403 666.563 126.348 665.767C127.509 664.788 128.098 663.235 128.098 661.151V626.85C128.098 624.765 127.509 623.212 126.348 622.233C125.403 621.437 124.066 621.022 122.379 621.001H109.003V617H121.79Z" fill="currentColor"></path>
<path d="M93.998 650.651C93.9981 652.735 94.587 654.288 95.748 655.267C96.6933 656.063 98.0296 656.478 99.7173 656.499H108.283C109.97 656.478 111.307 656.063 112.252 655.267C113.413 654.288 114.002 652.735 114.002 650.651V648H118V650.254L117.993 650.367C117.939 651.327 117.533 652.23 116.85 652.909L110.353 659.364C109.64 660.071 108.695 660.474 107.694 660.5H100.306C99.3054 660.474 98.3599 660.071 97.6475 659.364L91.1504 652.909C90.4673 652.23 90.0611 651.327 90.0068 650.367L90 650.254V648H93.998V650.651Z" fill="currentColor"></path>
<path d="M106.009 646.5H102.009V630.5H106.009V646.5Z" fill="currentColor"></path>
<path d="M116 630.497C117.105 630.497 118 631.392 118 632.497V637.536C118 638.641 117.105 639.536 116 639.536C114.896 639.536 114 638.641 114 637.536V632.497C114 631.392 114.896 630.497 116 630.497Z" fill="currentColor"></path>
<path d="M91.9916 630.499C93.0961 630.499 93.9916 631.395 93.9916 632.499V637.499C93.9916 638.604 93.0961 639.499 91.9916 639.499C90.887 639.499 89.9916 638.604 89.9916 637.499V632.499C89.9916 631.395 90.887 630.499 91.9916 630.499Z" fill="currentColor"></path>
</g></svg>