<svg xmlns="http://www.w3.org/2000/svg" viewBox="0 0 64 64" fill="none"><g transform="translate(-564 -1452)" fill="currentColor">
<path d="M572 1495H571.998V1497.65C571.998 1499.73 572.587 1501.29 573.748 1502.27C574.693 1503.06 576.03 1503.48 577.718 1503.5H580.5V1503.5H624V1507.5H578.306C577.305 1507.47 576.36 1507.07 575.647 1506.36L569.15 1499.91C568.467 1499.23 568.061 1498.33 568.007 1497.37L568 1497.25V1460.5H572V1495ZM593.955 1479.22C595.517 1477.65 598.049 1477.65 599.611 1479.22L582.716 1496.11L579.888 1493.28L593.955 1479.22ZM620.172 1460.5C620.701 1460.5 621.209 1460.71 621.583 1461.09L622.414 1461.92C622.789 1462.29 623 1462.8 623 1463.33V1479.5H619V1467.33L606.639 1479.69C605.076 1481.25 602.544 1481.25 600.981 1479.69L616.172 1464.5H604V1460.5H620.172Z" fill="currentColor"></path>
</g></svg>