<svg xmlns="http://www.w3.org/2000/svg" viewBox="0 0 64 64" fill="none"><g transform="translate(-236 -192)" fill="currentColor">
<path fill-rule="evenodd" clip-rule="evenodd" d="M270.001 199.995L279.986 199.993C281.224 199.993 282.389 200.474 283.266 201.347L295.628 213.659C296.497 214.525 296.996 215.725 296.996 216.952L296.997 222.991C296.997 224.097 296.097 224.997 294.99 224.997H270V245.052C270 249.44 266.444 252.997 262.057 253H261.453C257.061 253.002 253.5 249.444 253.5 245.052V242.495H257.5V248.807C257.5 249.465 258.035 249.999 258.693 249.999L264.809 249.992C265.467 249.991 266 249.458 266 248.8V224.997H241.007C239.9 224.997 239 224.098 239 222.991V216.952C239 215.725 239.499 214.525 240.368 213.659L252.73 201.347C253.576 200.504 254.7 200.024 255.89 199.993L266 199.999V194.999L270.001 194.995V199.995ZM257.697 204.009C253.371 204.053 250.602 206.05 247.984 208.665C245.321 211.326 243.014 214.479 243.014 218.902V220.984H292.982L292.981 218.693C292.937 214.363 290.83 211.452 288.212 208.835C285.551 206.176 282.508 204.009 278.09 204.009H257.697Z" fill="currentColor"></path>
</g></svg>