<svg xmlns="http://www.w3.org/2000/svg" viewBox="0 0 64 64" fill="none"><g transform="translate(-564 -402)" fill="currentColor">
<path fill-rule="evenodd" clip-rule="evenodd" d="M596 418.726C601.661 418.726 606.25 423.316 606.25 428.976C606.25 434.637 601.661 439.226 596 439.226C590.339 439.226 585.75 434.637 585.75 428.976C585.75 423.316 590.339 418.726 596 418.726ZM591.533 422.759C590.566 422.759 589.783 423.542 589.783 424.509V433.444C589.783 434.41 590.566 435.194 591.533 435.194H600.467C601.434 435.194 602.217 434.41 602.217 433.444V424.509C602.217 423.542 601.434 422.759 600.467 422.759H591.533Z" fill="currentColor"></path>
<path fill-rule="evenodd" clip-rule="evenodd" d="M607.118 406.014C608.308 406.045 609.431 406.525 610.276 407.367L622.633 419.669C623.502 420.535 624 421.734 624 422.96V445.04C624 446.266 623.502 447.465 622.633 448.331L610.276 460.633C609.431 461.475 608.308 461.955 607.118 461.986H584.882C583.692 461.955 582.569 461.475 581.724 460.633L569.367 448.33C568.498 447.465 568 446.266 568 445.04V422.96C568 421.734 568.498 420.535 569.367 419.669L581.724 407.367C582.569 406.525 583.692 406.045 584.882 406.014H607.118ZM607.5 457.767L607.502 453.075C607.502 450.991 606.913 449.438 605.752 448.459C604.807 447.663 603.47 447.248 601.783 447.227H590.217C588.53 447.248 587.193 447.663 586.248 448.459C585.087 449.438 584.498 450.991 584.498 453.075L584.5 457.767C585.185 457.893 585.911 457.965 586.688 457.973H605.312C606.089 457.965 606.815 457.893 607.5 457.767ZM611.5 456.21C612.772 455.426 613.91 454.43 615.02 453.321C617.682 450.661 619.988 447.511 619.988 443.091V424.909C619.988 420.489 617.682 417.339 615.02 414.679C612.404 412.066 609.635 410.071 605.312 410.027H586.688C582.365 410.071 579.596 412.066 576.98 414.679C574.318 417.339 572.012 420.489 572.012 424.909V443.091C572.012 447.511 574.318 450.661 576.98 453.321C578.09 454.43 579.228 455.426 580.5 456.21L580.507 453.359C580.561 452.399 580.967 451.496 581.65 450.817L588.147 444.362C588.86 443.655 589.805 443.252 590.806 443.226H601.194C602.195 443.252 603.14 443.655 603.853 444.362L610.35 450.817C611.033 451.496 611.439 452.399 611.493 453.359L611.5 456.21Z" fill="currentColor"></path>
</g></svg>