<svg xmlns="http://www.w3.org/2000/svg" viewBox="0 0 64 64" fill="none"><g transform="translate(-564 -1662)" fill="currentColor">
<path d="M608.118 1697.51C609.308 1697.55 610.432 1698.03 611.277 1698.87L623.634 1711.17C624.502 1712.04 625 1713.23 625 1714.46V1718C625 1720.21 623.209 1722 621 1722H585C582.791 1722 581 1720.21 581 1718V1714.46C581 1713.23 581.498 1712.04 582.367 1711.17L594.724 1698.87C595.569 1698.03 596.693 1697.55 597.883 1697.51L601.5 1697.5H604.5L608.118 1697.51ZM599.688 1701.53C595.365 1701.57 592.596 1703.57 589.98 1706.18C587.318 1708.84 585.012 1711.99 585.012 1716.41L585 1718H621L620.989 1716.41C620.989 1711.99 618.683 1708.84 616.021 1706.18C613.405 1703.57 610.636 1701.57 606.312 1701.53L604.5 1701.5H601.5L599.688 1701.53ZM588.496 1691.55C589.602 1691.55 590.5 1692.44 590.5 1693.55V1695.54L585.688 1695.57C581.365 1695.62 578.596 1697.61 575.98 1700.22C573.318 1702.88 571.012 1706.03 571.012 1710.45L571 1711.54V1715.04H567V1708.5C567 1707.28 567.499 1706.08 568.367 1705.21L580.724 1692.91C581.569 1692.07 582.693 1691.59 583.883 1691.56L588.496 1691.55ZM603 1669.54C609.351 1669.55 614.5 1674.69 614.5 1681.04C614.5 1687.4 609.351 1692.54 603 1692.54C596.649 1692.54 591.5 1687.4 591.5 1681.04C591.5 1674.69 596.649 1669.55 603 1669.54ZM598.5 1673.54C596.843 1673.54 595.5 1674.89 595.5 1676.54V1685.54C595.5 1687.2 596.843 1688.54 598.5 1688.54H607.5C609.157 1688.54 610.5 1687.2 610.5 1685.54V1676.54C610.5 1674.89 609.157 1673.54 607.5 1673.54H598.5ZM587 1666.04C588.614 1666.04 590.142 1666.42 591.5 1667.08V1670.08C591.489 1670.08 591.479 1670.08 591.468 1670.08H582.533C581.567 1670.08 580.783 1670.86 580.783 1671.83V1680.76C580.783 1681.73 581.567 1682.51 582.533 1682.51H587.5V1686.53C587.334 1686.54 587.168 1686.54 587 1686.54C581.339 1686.54 576.75 1681.96 576.75 1676.29C576.75 1670.63 581.34 1666.05 587 1666.04Z" fill="currentColor"></path>
</g></svg>