<svg xmlns="http://www.w3.org/2000/svg" viewBox="0 0 64 64" fill="none"><g transform="translate(-236 -1662)" fill="currentColor">
<path d="M282.916 1699.13C286.138 1695.91 291.362 1695.91 294.584 1699.13C297.806 1702.36 297.806 1707.58 294.584 1710.8L282.386 1723L270.188 1710.8C266.967 1707.58 266.967 1702.36 270.188 1699.13C273.41 1695.91 278.634 1695.91 281.855 1699.13L282.386 1699.67L282.916 1699.13ZM264.5 1699.5H259.5L257.688 1699.53C253.365 1699.57 250.596 1701.57 247.98 1704.18C245.318 1706.84 243.012 1709.99 243.012 1714.41L243 1716V1717H268.575V1721H243.001C240.791 1721 239 1719.21 239 1717V1712.46C239 1711.23 239.499 1710.04 240.367 1709.17L252.724 1696.87C253.569 1696.03 254.692 1695.55 255.882 1695.51L259.314 1695.5V1695.5H264.5V1699.5ZM290.164 1698.96C289.774 1698.57 289.14 1698.57 288.75 1698.96L282.386 1705.32L276.022 1698.96C275.632 1698.57 274.998 1698.57 274.607 1698.96L270.012 1703.55C269.621 1703.95 269.621 1704.58 270.012 1704.97L282.386 1717.34L294.761 1704.97C295.151 1704.58 295.151 1703.95 294.761 1703.55L290.164 1698.96ZM263 1665C270.041 1665 275.75 1670.71 275.75 1677.75C275.75 1684.79 270.041 1690.5 263 1690.5C255.959 1690.5 250.25 1684.79 250.25 1677.75C250.25 1670.71 255.959 1665 263 1665ZM257.96 1669.43C256.151 1669.43 254.685 1670.9 254.685 1672.71V1682.79C254.685 1684.6 256.151 1686.07 257.96 1686.07H268.04C269.849 1686.07 271.315 1684.6 271.315 1682.79V1672.71C271.315 1670.9 269.849 1669.43 268.04 1669.43H257.96Z" fill="currentColor"></path>
</g></svg>