<svg xmlns="http://www.w3.org/2000/svg" viewBox="0 0 64 64" fill="none"><g transform="translate(-400 -1662)" fill="currentColor">
<path d="M437 1696.51L439.118 1696.51C440.308 1696.55 441.431 1697.03 442.276 1697.87L454.633 1710.17C455.501 1711.04 456 1712.23 456 1713.46V1718C456 1720.21 454.209 1722 451.999 1722H412.001C409.791 1722 408 1720.21 408 1718V1713.46C408 1712.23 408.499 1711.04 409.367 1710.17L421.724 1697.87C422.569 1697.03 423.692 1696.55 424.882 1696.51L428.314 1696.5V1696.5H437V1696.51ZM426.688 1700.53C422.365 1700.57 419.596 1702.57 416.98 1705.18C414.318 1707.84 412.012 1710.99 412.012 1715.41L412 1717V1718H452V1717L451.988 1715.41C451.988 1710.99 449.682 1707.84 447.02 1705.18C444.404 1702.57 441.635 1700.57 437.312 1700.53L435.5 1700.5H428.5L426.688 1700.53ZM432 1666C439.041 1666 444.75 1671.71 444.75 1678.75C444.75 1685.79 439.041 1691.5 432 1691.5C424.959 1691.5 419.25 1685.79 419.25 1678.75C419.25 1671.71 424.959 1666 432 1666ZM426.96 1670.43C425.151 1670.43 423.685 1671.9 423.685 1673.71V1683.79C423.685 1685.6 425.151 1687.07 426.96 1687.07H437.04C438.849 1687.07 440.315 1685.6 440.315 1683.79V1673.71C440.315 1671.9 438.849 1670.43 437.04 1670.43H426.96Z" fill="currentColor"></path>
</g></svg>