<svg xmlns="http://www.w3.org/2000/svg" viewBox="0 0 64 64" fill="none"><g transform="translate(-72 -192)" fill="currentColor">
<path d="M110.5 226.5C110.5 228.709 108.709 230.5 106.5 230.5H101.5C99.2909 230.5 97.5 228.709 97.5 226.5H110.5Z" fill="currentColor"></path>
<path fill-rule="evenodd" clip-rule="evenodd" d="M133 237.254L132.993 237.367C132.939 238.327 132.533 239.23 131.85 239.909L125.353 246.364C124.64 247.071 123.695 247.474 122.694 247.5H85.3057C84.3054 247.474 83.3599 247.071 82.6475 246.364L76.1504 239.909C75.4673 239.23 75.0611 238.327 75.0068 237.367L75 237.254V210.746L75.0068 210.633C75.0611 209.673 75.4673 208.77 76.1504 208.091L82.6475 201.636C83.3599 200.929 84.3054 200.526 85.3057 200.5H122.694C123.695 200.526 124.64 200.929 125.353 201.636L131.85 208.091C132.533 208.77 132.939 209.673 132.993 210.633L133 210.746V237.254ZM129 235V226.5H110.5C110.5 224.291 112.291 222.5 114.5 222.5H129V216.5H79V222.5H93.5C95.7091 222.5 97.5 224.291 97.5 226.5H79V235H78.998V237.651C78.9981 239.735 79.587 241.288 80.748 242.267C81.6933 243.063 83.0296 243.478 84.7173 243.499H87.5V243.5H120.5V243.499H123.283C124.97 243.478 126.307 243.063 127.252 242.267C128.413 241.288 129.002 239.735 129.002 237.651V235H129ZM87.5 204.501H84.7173C83.0296 204.522 81.6933 204.937 80.748 205.733C79.587 206.712 78.9981 208.265 78.998 210.349V212.5H129.002V210.349C129.002 208.265 128.413 206.712 127.252 205.733C126.307 204.937 124.97 204.522 123.283 204.501H120.5V204.5H87.5V204.501Z" fill="currentColor"></path>
</g></svg>