<svg xmlns="http://www.w3.org/2000/svg" viewBox="0 0 64 64" fill="none"><g transform="translate(-1220 -1452)" fill="currentColor">
<path d="M1233.31 1466C1234.08 1466 1234.82 1466.31 1235.37 1466.85L1236.4 1467.89L1250.84 1482.33L1255.88 1477.29C1256.66 1476.51 1257.93 1476.51 1258.71 1477.29C1259.49 1478.07 1259.49 1479.34 1258.71 1480.12L1253.67 1485.16L1269.76 1501.25L1269.67 1501.34C1269.88 1501.76 1270 1502.22 1270 1502.69C1269.99 1503.09 1269.92 1503.48 1269.79 1503.85C1269.6 1504.41 1269.29 1504.92 1268.86 1505.35L1262.41 1511.85C1261.73 1512.53 1260.83 1512.94 1259.87 1512.99L1259.75 1513H1243.5L1239.88 1512.99C1238.69 1512.95 1237.57 1512.47 1236.72 1511.63L1224.37 1499.33C1223.5 1498.46 1223 1497.27 1223 1496.04V1476.25L1223.01 1476.13C1223.06 1475.17 1223.47 1474.27 1224.15 1473.59L1230.65 1467.14C1231.08 1466.71 1231.59 1466.4 1232.15 1466.21C1232.52 1466.08 1232.91 1466.01 1233.31 1466ZM1234.5 1471.64C1233.45 1470.59 1231.99 1469.9 1230.57 1470.31C1229.85 1470.52 1229.23 1470.83 1228.75 1471.23C1227.59 1472.21 1227 1473.77 1227 1475.85V1478.5H1227V1492.5L1227.01 1494.09C1227.01 1498.51 1229.32 1501.66 1231.98 1504.32C1234.6 1506.93 1237.36 1508.93 1241.69 1508.97L1243.5 1509H1257.5V1509H1260.15C1262.23 1509 1263.79 1508.41 1264.77 1507.25C1265.17 1506.77 1265.48 1506.15 1265.69 1505.43C1266.1 1504.01 1265.41 1502.55 1264.36 1501.5L1234.5 1471.64ZM1271 1478.5H1267V1477.5H1267V1474.85C1267 1472.77 1266.41 1471.21 1265.25 1470.23C1264.31 1469.44 1262.97 1469.02 1261.28 1469L1258.5 1469H1257.5V1465H1260.69C1261.69 1465.03 1262.64 1465.43 1263.35 1466.14L1269.85 1472.59C1270.53 1473.27 1270.94 1474.17 1270.99 1475.13L1271 1475.25V1478.5ZM1264.12 1455.01C1265.31 1455.05 1266.43 1455.53 1267.28 1456.37L1279.63 1468.67C1280.5 1469.54 1281 1470.73 1281 1471.96V1475.5H1280.99V1478.5H1276.99V1475.5H1277L1276.99 1473.91C1276.99 1469.49 1274.68 1466.34 1272.02 1463.68C1269.4 1461.07 1266.64 1459.07 1262.31 1459.03L1260.5 1459H1257.5V1455H1260.5L1264.12 1455.01Z" fill="currentColor"></path>
</g></svg>